<svg width="46" height="49" viewBox="0 0 46 49" fill="none" xmlns="http://www.w3.org/2000/svg">
<path d="M14.9387 49C14.1215 48.8081 13.2803 48.6763 12.4872 48.4085C8.7459 47.1377 6.1422 43.4732 6.16222 39.529C6.17024 38.0664 6.69498 36.7237 7.25578 35.4009C8.60169 32.2199 10.3922 29.2787 12.1668 26.3296C13.072 24.827 13.9853 23.3324 14.8946 21.8338C15.3873 21.0226 15.9762 21.0106 16.4488 21.8139C18.4797 25.2586 20.5587 28.6793 22.5175 32.168C23.3547 33.6586 24.0196 35.261 24.6325 36.8635C25.8021 39.9246 25.1011 42.7379 23.1944 45.2715C21.5962 47.3975 19.4091 48.5963 16.7493 48.908C16.6251 48.924 16.5049 48.968 16.3807 49C15.8961 49 15.4154 49 14.9387 49ZM15.6677 23.5003C15.5796 23.6241 15.4995 23.72 15.4354 23.8239C14.426 25.4864 13.4005 27.1408 12.4111 28.8152C10.957 31.2728 9.53502 33.7465 8.45348 36.396C7.88868 37.7826 7.4841 39.1813 7.73246 40.7198C8.26922 44.0367 10.925 46.7741 14.2457 47.3655C17.6425 47.9689 21.0674 46.3385 22.7057 43.3214C23.5349 41.7948 23.9876 40.1484 23.5389 38.442C23.1984 37.1433 22.6857 35.8725 22.1089 34.6536C20.3103 30.8413 18.0271 27.2966 15.836 23.7041C15.7959 23.6401 15.7398 23.5842 15.6677 23.5003Z" fill="white"/>
<path d="M13.9041 13.6335C13.5877 17.4539 10.5433 20.2552 6.74595 20.1713C2.90449 20.0873 -0.256001 16.7825 0.0163858 12.9581C0.092494 11.8632 0.481046 10.7243 0.993775 9.7452C2.39176 7.07974 3.92594 4.48621 5.40805 1.86871C5.68444 1.38517 5.96885 0.905623 6.27328 0.434072C6.64581 -0.141379 7.2707 -0.149372 7.6232 0.438069C9.4578 3.51514 11.4486 6.50828 12.9388 9.78116C13.3994 10.7962 13.824 11.8312 13.9001 12.9621C13.9161 13.1739 13.9041 13.3817 13.9041 13.6335ZM6.94624 2.21238C6.2212 3.40324 5.53623 4.4982 4.88731 5.60914C3.7537 7.54729 2.61208 9.48145 1.81895 11.5954C1.48648 12.4826 1.39034 13.3777 1.57861 14.3128C2.19148 17.3819 5.35998 19.3081 8.44436 18.4649C11.2483 17.6976 13.3714 14.4167 12.0054 11.4596C11.1001 9.49744 10.0707 7.59125 9.04121 5.68906C8.41632 4.53017 7.68729 3.43122 6.94624 2.21238Z" fill="white"/>
<path d="M20.9625 19.8797C20.9344 18.7808 21.2989 17.7777 21.7195 16.7946C22.8211 14.2051 24.3072 11.8234 25.7573 9.42567C26.25 8.60645 26.7387 7.78324 27.2474 6.97201C27.6199 6.37658 28.2448 6.3486 28.5893 6.94004C30.2917 9.87325 32.0102 12.7985 33.6485 15.7676C34.1572 16.6907 34.5538 17.7218 34.7501 18.7528C35.2227 21.2104 34.3615 23.2965 32.5109 24.9189C30.472 26.7012 28.0846 27.1568 25.537 26.2217C22.9693 25.2786 21.4952 23.3684 21.0185 20.6869C20.9705 20.4272 20.9785 20.1515 20.9625 19.8797ZM27.9524 8.67838C27.5278 9.36573 27.1513 9.9212 26.8308 10.5046C25.549 12.8344 24.2511 15.1562 23.0414 17.522C22.6889 18.2093 22.4486 19.0445 22.4606 19.8078C22.5046 23.4083 25.9175 25.918 29.3944 24.9868C32.3106 24.2076 34.2694 20.9027 33.0316 18.0455C32.4908 16.7907 31.918 15.5438 31.2571 14.345C30.2196 12.4668 29.098 10.6325 27.9524 8.67838Z" fill="white"/>
<path d="M31.3208 34.286C31.2888 33.1511 31.5692 32.184 31.9978 31.2768C32.7228 29.7543 33.4679 28.2357 34.2971 26.7691C35.3386 24.9229 36.4642 23.1246 37.5617 21.3143C37.9383 20.6909 38.5792 20.643 38.9277 21.2424C40.6501 24.2036 42.3846 27.1568 44.0309 30.1579C44.5356 31.081 44.9082 32.124 45.1044 33.1551C45.521 35.325 44.8 37.2352 43.2859 38.7897C41.307 40.8158 38.8756 41.4631 36.1757 40.608C33.4759 39.7568 31.9017 37.8186 31.3769 35.0413C31.3289 34.7575 31.3369 34.4658 31.3208 34.286ZM38.2908 22.9488C37.5417 24.1876 36.8527 25.2945 36.1958 26.4175C35.0501 28.3676 33.9085 30.3178 33.1154 32.4517C32.7469 33.4428 32.6988 34.4298 32.9752 35.4449C33.7763 38.3981 36.9609 40.1484 39.9091 39.2333C42.7931 38.3381 44.6318 35.0812 43.3539 32.2279C42.7531 30.8772 42.1202 29.5345 41.4072 28.2437C40.4338 26.4894 39.3763 24.787 38.2908 22.9488Z" fill="white"/>
<path d="M15.5356 44.744C12.7597 44.6721 10.4684 42.4023 10.4204 39.6689C10.4083 39.0974 10.6447 38.7857 11.1053 38.7617C11.566 38.7377 11.8624 39.0095 11.8864 39.5809C11.9706 41.5671 13.5168 43.1815 15.6358 43.2654C16.1405 43.2854 16.4329 43.6011 16.4049 44.0487C16.3768 44.4883 16.0363 44.76 15.5356 44.744Z" fill="white"/>
<path d="M6.8389 17.2502C4.7319 17.0744 3.05752 15.404 2.98141 13.3619C2.96138 12.8544 3.26181 12.4828 3.70244 12.4628C4.12704 12.4468 4.42747 12.7585 4.47554 13.262C4.59971 14.6767 5.44091 15.5079 6.915 15.6797C7.55591 15.7557 7.91643 16.3031 7.57995 16.7707C7.41972 16.9945 7.08725 17.0944 6.8389 17.2502Z" fill="white"/>
<path d="M27.7039 23.6721C25.7011 23.5682 23.9786 21.8219 23.9746 19.8557C23.9746 19.3482 24.239 19.0125 24.6636 18.9806C25.0762 18.9486 25.4006 19.2683 25.4647 19.7598C25.653 21.2744 26.4021 22.0257 27.9202 22.1935C28.3008 22.2335 28.6132 22.3973 28.6212 22.769C28.6292 23.0247 28.465 23.3284 28.2887 23.5322C28.1766 23.6521 27.9002 23.6281 27.7039 23.6721Z" fill="white"/>
<path d="M34.3342 34.1741C34.3262 33.6226 34.5465 33.3269 34.9871 33.2909C35.4558 33.255 35.7202 33.5147 35.8003 34.0862C36.0166 35.6047 36.7456 36.304 38.2958 36.4799C38.7365 36.5278 39.0128 36.8275 38.9968 37.2352C38.9808 37.6348 38.6724 37.9145 38.2357 37.9345C36.2569 38.0144 34.3622 36.1882 34.3342 34.1741Z" fill="white"/>
</svg>
