<svg width="49" height="49" viewBox="0 0 49 49" fill="none" xmlns="http://www.w3.org/2000/svg">
<path d="M48.9986 42.1978C48.7007 42.7318 48.2382 42.8785 47.6444 42.8765C43.5341 42.8602 39.4238 42.8679 35.3135 42.8679C35.1229 42.8679 34.9324 42.8679 34.6652 42.8679C34.6652 43.261 34.6719 43.6368 34.6633 44.0107C34.6489 44.6579 34.2955 45.0625 33.7449 45.0778C33.1731 45.0931 32.7814 44.6838 32.7565 44.0251C32.7422 43.6608 32.7537 43.2965 32.7537 42.9005C27.2691 42.9005 21.8152 42.9005 16.3086 42.9005C16.3086 43.2907 16.3172 43.6694 16.3067 44.0472C16.2885 44.6627 15.9361 45.0567 15.4017 45.0768C14.8443 45.0979 14.4402 44.7096 14.4048 44.0845C14.3827 43.7039 14.4009 43.3214 14.4009 42.8679C14.2104 42.8679 14.0428 42.8679 13.8742 42.8679C11.007 42.8679 8.13875 42.8679 5.2715 42.8679C5.11252 42.8679 4.95163 42.8756 4.79362 42.8583C4.26307 42.7998 3.88862 42.4077 3.88288 41.9197C3.87713 41.4336 4.25062 41.03 4.77638 40.9658C4.93344 40.9466 5.09433 40.9543 5.2533 40.9543C8.29581 40.9533 11.3383 40.9543 14.4048 40.9063C11.9416 39.7961 9.64325 38.4251 7.51052 36.6083C7.49233 36.9333 7.49232 37.1634 7.46455 37.3897C7.39177 37.986 6.98476 38.3599 6.46283 38.3264C5.94378 38.2928 5.58465 37.918 5.57316 37.3312C5.55496 36.3744 5.55496 35.4176 5.5722 34.4608C5.58369 33.828 5.90356 33.457 6.52891 33.433C7.51531 33.3946 8.50458 33.3975 9.49098 33.4301C10.0857 33.4503 10.4793 33.8874 10.4659 34.4013C10.4515 34.9286 10.0589 35.2853 9.44501 35.3265C9.33775 35.3332 9.23049 35.3361 8.9882 35.3476C12.9903 38.6102 17.4492 40.427 22.4597 40.8536C30.2475 41.517 36.6016 38.3542 39.9678 35.3553C39.7676 35.339 39.6 35.3332 39.4344 35.3112C38.9555 35.2479 38.6088 34.8836 38.5839 34.4243C38.559 33.9728 38.8674 33.5308 39.3491 33.4781C39.963 33.4109 40.5874 33.4272 41.207 33.4167C41.6207 33.409 42.0363 33.3975 42.4491 33.4224C43.1262 33.4627 43.4652 33.8098 43.4767 34.4866C43.492 35.4272 43.492 36.3686 43.4757 37.3092C43.4652 37.918 43.0888 38.313 42.5602 38.3302C42.043 38.3475 41.6437 37.9621 41.5814 37.3638C41.5594 37.15 41.5776 36.9314 41.5776 36.5863C39.4056 38.4002 37.1321 39.8115 34.6422 40.9533C34.8021 40.9533 34.962 40.9533 35.121 40.9533C39.2955 40.9533 43.469 40.961 47.6435 40.9447C48.2372 40.9428 48.6998 41.0885 48.9976 41.6235C48.9986 41.8152 48.9986 42.007 48.9986 42.1978Z" fill="white"/>
<path d="M48.9982 48.3222C48.7004 48.8562 48.2378 49.001 47.6441 49C32.2247 48.9895 16.8053 48.9914 1.38589 48.9914C1.33801 48.9914 1.29012 48.9914 1.24224 48.9914C0.510581 48.9837 0.0547313 48.6146 0.0566466 48.0326C0.058562 47.4497 0.512496 47.0816 1.24703 47.0797C2.55041 47.0758 3.85284 47.0787 5.21177 47.0787C5.21177 46.6664 5.20219 46.2887 5.21368 45.9119C5.23379 45.2753 5.60537 44.8736 6.15986 44.8698C6.71626 44.8659 7.09263 45.2657 7.1204 45.8975C7.12902 46.0883 7.12231 46.2801 7.12231 46.4718C7.12231 46.6588 7.12231 46.8457 7.12231 47.0557C12.6097 47.0557 18.0522 47.0557 23.5664 47.0557C23.5664 46.701 23.5616 46.3414 23.5674 45.9829C23.5798 45.2811 23.9504 44.8602 24.5404 44.8707C25.1083 44.8803 25.4636 45.2935 25.477 45.9714C25.4837 46.3194 25.4779 46.6684 25.4779 47.048C30.9606 47.048 36.4135 47.048 41.922 47.048C41.922 46.6655 41.9124 46.2877 41.9239 45.911C41.944 45.2753 42.3175 44.8736 42.872 44.8707C43.4284 44.8679 43.8058 45.2677 43.8307 45.9004C43.845 46.2667 43.8421 46.6329 43.8488 46.9991C43.8488 47.0106 43.869 47.0221 43.9235 47.0797C45.134 47.0797 46.3886 47.0998 47.6412 47.071C48.2359 47.0576 48.6975 47.2158 48.9953 47.7498C48.9982 47.9396 48.9982 48.1304 48.9982 48.3222Z" fill="white"/>
<path d="M8.27248 0C8.84708 0.24256 9.24068 0.682619 9.61513 1.16582C11.1177 3.10534 12.6825 4.99885 14.142 6.97096C15.9357 9.3956 16.268 12.0772 15.0307 14.8268C13.7637 17.6417 11.5056 19.2409 8.41134 19.4364C5.13324 19.6435 2.59351 18.2428 1.02677 15.3752C-0.533271 12.5182 -0.2996 9.64392 1.61861 7.00739C3.16332 4.88092 4.8153 2.83306 6.45387 0.776576C6.71627 0.446771 7.15201 0.255024 7.5073 0C7.763 0 8.01774 0 8.27248 0ZM7.85877 2.03348C6.21062 4.17817 4.59695 6.24999 3.01584 8.34675C2.25162 9.36013 1.95475 10.549 1.97103 11.8049C2.017 15.3724 5.35925 18.1019 8.90549 17.4873C12.718 16.8258 14.9091 12.7176 13.2437 9.23645C12.8176 8.34579 12.1654 7.55387 11.5611 6.76004C10.3659 5.19059 9.1315 3.65278 7.85877 2.03348Z" fill="white"/>
<path d="M48.9988 12.5355C48.7278 13.3926 48.5468 14.2928 48.1695 15.1001C46.7454 18.1479 43.3007 19.9302 40.0035 19.3981C36.5176 18.8353 33.8533 16.1336 33.4042 12.7186C33.1245 10.5931 33.6139 8.6593 34.9077 6.96233C36.5003 4.87325 38.1322 2.81389 39.7765 0.764112C40.0312 0.445812 40.4402 0.251189 40.7773 0C41.032 0 41.2867 0 41.5424 0C42.0979 0.206128 42.4915 0.596333 42.8477 1.06132C44.2411 2.87812 45.6863 4.65562 47.0452 6.49735C47.6322 7.2931 48.1053 8.18664 48.5324 9.08305C48.7853 9.61324 48.8504 10.2335 48.9998 10.8136C48.9988 11.3869 48.9988 11.9612 48.9988 12.5355ZM41.1383 1.99225C41.0818 2.11305 41.0598 2.19646 41.0109 2.25782C39.538 4.1379 38.0623 6.01606 36.5875 7.89518C35.6911 9.03704 35.2237 10.3342 35.2391 11.7867C35.2755 15.3896 38.7135 18.169 42.2511 17.471C46.0645 16.7184 48.1628 12.7128 46.4974 9.20961C46.0272 8.22019 45.2792 7.35446 44.6108 6.46763C43.5009 4.99597 42.3517 3.55211 41.1383 1.99225Z" fill="white"/>
<path d="M34.3925 26.6979C34.3523 31.6766 31.0924 35.6812 26.554 36.6323C21.9687 37.593 17.2733 35.1904 15.4556 30.8367C14.0584 27.4888 14.3715 24.2119 16.5129 21.2724C18.5757 18.4413 20.8032 15.729 22.98 12.9822C23.8678 11.8624 25.2526 11.8605 26.1231 12.9707C28.2654 15.7041 30.4086 18.4374 32.5069 21.2053C33.7959 22.9051 34.3868 24.8686 34.3925 26.6979ZM24.5822 14.0857C24.5046 14.1528 24.4625 14.1787 24.4337 14.2152C22.3001 16.936 20.129 19.6291 18.048 22.3912C16.6642 24.2291 16.2553 26.3642 16.7399 28.6067C17.6353 32.7513 21.4142 35.3754 25.6146 34.8375C31.4592 34.0888 34.495 27.2156 31.0263 22.4373C28.9693 19.6023 26.7494 16.8833 24.5822 14.0857Z" fill="white"/>
<path d="M1.95292 41.9236C1.9443 42.4221 1.48654 42.8679 0.992379 42.8593C0.494392 42.8507 0.0490767 42.3924 0.0567381 41.8977C0.0653571 41.3991 0.523122 40.9533 1.01728 40.9619C1.51526 40.9706 1.96154 41.4288 1.95292 41.9236Z" fill="white"/>
<path d="M29.1157 27.1916C29.0745 29.5108 26.9332 31.5865 24.5965 31.5721C24.0315 31.5683 23.5919 31.1675 23.5766 30.6431C23.5622 30.1273 23.9481 29.716 24.5505 29.6681C25.6164 29.5837 26.4486 29.1321 26.9179 28.1523C27.0778 27.8177 27.1429 27.4275 27.1994 27.0545C27.299 26.3969 27.6917 25.9904 28.2394 26.0354C28.8016 26.0814 29.1282 26.5119 29.1157 27.1916Z" fill="white"/>
</svg>
