<svg width="28" height="28" viewBox="0 0 28 28" fill="none" xmlns="http://www.w3.org/2000/svg">
<path d="M28 14.8864C27.9328 15.3811 27.8794 15.8781 27.7954 16.3692C27.2935 19.3034 25.9732 21.8159 23.8755 23.9248C23.8259 23.9744 23.7784 24.0269 23.6841 24.1262C23.9793 24.1262 24.2197 24.1232 24.4601 24.1269C24.9744 24.1335 25.3324 24.4684 25.3361 24.9413C25.339 25.4156 24.9847 25.7608 24.4725 25.7629C23.4518 25.768 22.4303 25.768 21.4096 25.7629C20.8843 25.76 20.5548 25.4309 20.5519 24.9084C20.5468 23.8343 20.5468 22.7594 20.5519 21.6852C20.5541 21.189 20.8938 20.8388 21.357 20.8351C21.8203 20.8315 22.1753 21.1759 22.1878 21.6677C22.2002 22.1734 22.1907 22.6799 22.1907 23.2396C22.2952 23.1527 22.3587 23.1067 22.415 23.0527C25.1695 20.4243 26.5088 17.2011 26.3378 13.4065C26.0916 7.94743 22.2776 3.34797 16.9915 2.03082C10.1534 0.327641 3.26275 4.68191 1.87381 11.5851C0.572537 18.0512 4.64804 24.4597 11.0404 26.0016C13.2798 26.5416 15.5002 26.4664 17.706 25.8104C17.877 25.7593 18.0648 25.7126 18.2379 25.7286C18.6252 25.7651 18.9057 26.0745 18.943 26.4496C18.9825 26.8488 18.7611 27.2173 18.3475 27.318C17.4737 27.5296 16.5918 27.7113 15.7099 27.8901C15.4169 27.9492 15.1152 27.9645 14.8178 27.9995C14.2523 27.9995 13.6875 27.9995 13.122 27.9995C13.0431 27.9835 12.9642 27.9587 12.8845 27.9528C11.8361 27.8762 10.8117 27.6748 9.80855 27.3618C4.33533 25.652 0.466595 20.7884 0.0420934 15.0418C-0.214361 11.5742 0.70113 8.42248 2.78564 5.64004C6.26714 0.992421 12.1539 -1.08219 17.7353 0.553856C23.2742 2.17676 26.6147 5.94288 27.7845 11.6019C27.8889 12.1076 27.9299 12.6257 28 13.138C28 13.721 28 14.3041 28 14.8864Z" fill="white"/>
<path d="M18.0989 8.27577C18.0989 8.96317 18.0762 9.60971 18.1033 10.2548C18.1668 11.7609 17.6905 13.0255 16.4287 14.0391C16.5098 14.0844 16.5814 14.1092 16.634 14.1552C17.6145 15.0031 18.104 16.0765 18.1018 17.3725C18.1004 18.1541 18.1018 18.9349 18.1018 19.7492C18.3743 19.7492 18.6264 19.7463 18.8785 19.75C19.3695 19.7573 19.7304 20.0973 19.7385 20.5549C19.7472 21.0219 19.3797 21.386 18.8778 21.3867C15.6242 21.3897 12.37 21.3897 9.11642 21.3867C8.62908 21.386 8.26523 21.035 8.25792 20.5804C8.25061 20.1148 8.61959 19.758 9.12007 19.75C9.36557 19.7463 9.61106 19.7492 9.89747 19.7492C9.89747 19.6318 9.89674 19.5274 9.89747 19.4223C9.90697 18.5576 9.87263 17.69 9.93839 16.8296C10.021 15.7467 10.5441 14.8623 11.3646 14.1537C11.4114 14.1136 11.4559 14.0712 11.4705 14.0581C11.2828 13.8465 11.1016 13.6444 10.9233 13.4408C10.2548 12.6775 9.9077 11.7887 9.89747 10.7751C9.88871 9.95633 9.89601 9.13757 9.89601 8.27504C9.64394 8.27504 9.4021 8.2765 9.16026 8.27504C8.63201 8.27066 8.25865 7.93061 8.25865 7.45556C8.25865 6.97978 8.63055 6.63681 9.15953 6.63681C12.386 6.63535 15.6125 6.63535 18.839 6.63681C19.368 6.63681 19.7399 6.98051 19.7392 7.45702C19.7377 7.93353 19.3666 8.27066 18.8361 8.27504C18.6001 8.27723 18.3656 8.27577 18.0989 8.27577ZM16.4462 8.2962C14.7964 8.2962 13.1722 8.2962 11.5487 8.2962C11.5487 8.84058 11.5487 9.36452 11.5487 9.89941C13.1861 9.89941 14.8103 9.89941 16.4462 9.89941C16.4462 9.35941 16.4462 8.8362 16.4462 8.2962ZM16.4586 17.6002C16.5003 16.5041 16.1225 15.6708 15.199 15.1542C14.2981 14.6499 13.3914 14.7149 12.5541 15.3147C11.7949 15.8598 11.4925 16.6297 11.5494 17.598C12.2026 17.2718 12.8266 16.9799 13.4308 16.6523C13.821 16.4407 14.1732 16.4363 14.5648 16.6472C15.1712 16.9741 15.7945 17.2682 16.4586 17.6002ZM16.2869 11.5544C14.7833 11.5544 13.3015 11.5544 11.8198 11.5552C11.7862 11.5552 11.7518 11.5639 11.7175 11.5683C11.8965 12.4279 12.8916 13.1598 13.9109 13.189C15.0054 13.2204 16.0151 12.5366 16.2869 11.5544ZM16.4403 19.7398C16.5046 19.5216 16.433 19.4099 16.2431 19.3187C15.5541 18.9896 14.8775 18.6349 14.1885 18.3073C14.087 18.2591 13.9218 18.2584 13.8203 18.3073C13.1225 18.6393 12.4379 18.9984 11.7409 19.3311C11.5421 19.426 11.5027 19.5442 11.5648 19.7405C13.189 19.7398 14.8074 19.7398 16.4403 19.7398Z" fill="white"/>
</svg>
