<svg width="28" height="28" viewBox="0 0 28 28" fill="none" xmlns="http://www.w3.org/2000/svg">
<path d="M19.8796 24.9807C15.9591 27.1082 12.0656 27.1265 8.12618 24.9734C7.61175 25.752 7.11627 26.5122 6.60906 27.2633C6.11087 28.0016 5.49987 28.1935 4.95926 27.8005C4.44844 27.4286 4.41234 26.8088 4.87533 26.0871C5.3663 25.3223 5.869 24.5648 6.36177 23.8127C0.480092 18.3375 1.75625 10.1463 6.20744 6.09979C10.6992 2.01564 17.7118 2.12582 22.042 6.3376C26.4138 10.5898 27.2811 18.5092 21.6359 23.8017C22.1639 24.6107 22.7153 25.4196 23.2288 26.2533C23.6891 27.0007 23.4165 27.8895 22.6693 27.9309C22.2884 27.952 21.7686 27.6949 21.5186 27.3891C20.9148 26.6527 20.4337 25.8135 19.8796 24.9807ZM23.4869 14.9889C23.4978 9.67525 19.3038 5.37992 14.0801 5.35605C8.78862 5.33034 4.52786 9.57517 4.51432 14.9016C4.50079 20.488 8.80216 24.45 14.0801 24.5179C19.2885 24.584 23.4761 20.2768 23.4869 14.9889Z" fill="white"/>
<path d="M0 4.39464C0.0694935 2.67761 0.897098 1.21124 2.66151 0.44363C4.47195 -0.344184 6.19575 -0.0870885 7.69843 1.24981C8.50618 1.96876 8.55131 3.02836 7.80132 3.81434C6.47914 5.20081 5.13349 6.56342 3.7707 7.90766C3.06042 8.60825 2.05412 8.58162 1.33843 7.87736C0.436816 6.98763 0.0144402 5.88212 0 4.39464ZM5.91597 2.63904C4.77429 1.80991 3.54417 1.98529 2.66512 3.02928C1.91423 3.92085 1.89889 5.16592 2.56765 5.8913C3.66871 4.82252 4.77158 3.75098 5.91597 2.63904Z" fill="white"/>
<path d="M28.0004 5.09163C27.9959 5.82344 27.5988 6.88855 26.7748 7.77369C26.0149 8.58997 24.9743 8.64231 24.1792 7.86C22.8317 6.53412 21.5023 5.18804 20.1973 3.81901C19.4464 3.03211 19.4951 1.97068 20.302 1.25356C21.8047 -0.0833327 23.5158 -0.317473 25.3443 0.433613C26.9815 1.10573 28.0031 2.75298 28.0004 5.09163ZM25.4328 5.94739C26.1349 5.01083 26.0573 3.76667 25.2288 2.89714C24.3497 1.97435 22.7911 1.84397 22.1485 2.5418C23.246 3.67944 24.3407 4.81525 25.4328 5.94739Z" fill="white"/>
<path d="M13.035 11.9432C13.035 11.2995 13.0124 10.655 13.0413 10.0122C13.0729 9.30887 13.5133 8.8057 14.044 8.88099C14.6667 8.96914 14.9573 9.39794 14.9609 10.026C14.9673 10.991 14.9817 11.957 14.9591 12.922C14.9492 13.3802 15.1108 13.6538 15.5259 13.842C16.1026 14.1019 16.6622 14.4058 17.2172 14.7125C17.7605 15.0118 17.8959 15.503 17.6324 16.0374C17.3725 16.5645 16.877 16.6618 16.3779 16.4277C15.451 15.9934 14.5169 15.5581 13.6451 15.0247C13.35 14.8438 13.1072 14.3828 13.0575 14.0192C12.9646 13.3388 13.0305 12.6364 13.0305 11.9432C13.0341 11.9432 13.0341 11.9432 13.035 11.9432Z" fill="white"/>
</svg>
