<svg width="15" height="13" viewBox="0 0 15 13" fill="none" xmlns="http://www.w3.org/2000/svg">
<path d="M9.62274 0C9.57815 0.0414073 9.53357 0.0799911 9.48899 0.116693C9.1607 0.474301 8.3187 1.27986 8.35112 2.35174C8.37645 3.19965 8.97122 3.84805 9.34004 4.23483C9.47582 4.33929 9.60146 4.45505 9.71494 4.58021C9.86389 4.73643 9.99054 4.91335 10.0909 5.10909C10.2874 5.47235 10.3999 5.88266 10.3999 6.31743C10.3999 6.4793 10.3837 6.6374 10.3543 6.79173C10.18 8.18735 9.08977 9.01173 7.49899 9.01173C5.9082 9.01173 4.81796 8.18735 4.64368 6.79079C4.61429 6.6374 4.59808 6.4793 4.59808 6.31743C4.59808 5.87324 4.71359 5.45447 4.91928 5.08462C5.01655 4.90206 5.1351 4.73643 5.27493 4.58868C5.42185 4.42587 5.58903 4.27906 5.77344 4.15202C6.1605 3.78782 6.6965 3.20812 6.72892 2.42044C6.77655 1.26669 5.77851 0.380194 5.4796 0.0846965H5.48163C5.44819 0.0592875 5.41374 0.0301144 5.37929 0C2.17847 0.706747 0 3.04437 0 6.38707C0 10.4252 3.17955 13 7.5 13C11.8205 13 15 10.4262 15 6.38707C15 3.04532 12.8215 0.707688 9.62274 0Z" fill="#9B9B9B"/>
</svg>
