<svg width="25" height="25" viewBox="0 0 25 25" fill="none" xmlns="http://www.w3.org/2000/svg">
<g clip-path="url(#clip0_110_984)">
<path d="M24.6344 5.55938C24.0735 3.50271 22.2812 2.15544 20.0686 2.12702C19.8898 2.12457 19.7095 2.12555 19.519 2.12604C19.4259 2.12653 19.3294 2.12653 19.2295 2.12653H19.0335V1.93057C19.0335 1.85708 19.0321 1.78457 19.0306 1.71304C19.0277 1.55578 19.0242 1.39313 19.037 1.23145C19.0786 0.705283 18.8802 0.378509 18.4124 0.205078H18.0906C17.6223 0.382428 17.4244 0.719001 17.469 1.26134C17.4812 1.41321 17.4783 1.56607 17.4754 1.71353C17.4739 1.78065 17.4724 1.84826 17.4724 1.91734V2.1133H7.50421V1.91734C7.50421 1.84826 7.50274 1.78065 7.50127 1.71353C7.49833 1.56607 7.4949 1.4137 7.50715 1.26183C7.55074 0.717531 7.35285 0.380958 6.88554 0.205078H6.56323C6.09543 0.377529 5.89705 0.704793 5.93917 1.2339C5.95142 1.38872 5.94848 1.54402 5.94554 1.70863C5.94407 1.78751 5.9426 1.8708 5.9426 1.95947V2.15544H5.74666C5.59285 2.15544 5.44052 2.15299 5.29356 2.15054C5.14759 2.14809 5.00554 2.14564 4.86495 2.14564C4.69988 2.14564 4.53823 2.14907 4.37609 2.15887C2.33102 2.28674 0.471099 4.05289 0.230588 6.09535C0.208545 6.28299 0.183074 6.52991 0.183074 6.7778C0.180135 11.5408 0.177686 15.8354 0.182094 20.1579C0.184543 22.3542 1.67904 24.2233 3.81719 24.7029C4.14538 24.7764 4.51374 24.8141 4.91149 24.8146C9.73493 24.8214 14.6397 24.8205 19.3828 24.8195H20.072C22.4864 24.819 24.413 23.1479 24.7563 20.7556C24.7637 20.7052 24.7813 20.6635 24.795 20.6322V6.28299C24.7789 6.2095 24.7637 6.13552 24.7485 6.06203C24.7142 5.89546 24.6789 5.72301 24.6344 5.55938ZM23.2334 20.0849C23.2329 21.9226 21.9016 23.2571 20.0686 23.2581C17.5425 23.2601 15.009 23.2611 12.4873 23.2611C9.94311 23.2611 7.41065 23.2601 4.9061 23.2581C3.0741 23.2566 1.7437 21.9216 1.74321 20.083C1.74223 17.6687 1.74272 15.2543 1.74272 12.84V9.45961H23.2344V12.9233C23.2339 15.3107 23.2344 17.698 23.2334 20.0849ZM23.2065 7.70522L23.1849 7.87669H1.80738L1.78142 7.7106C1.59185 6.49218 1.88967 5.37076 2.59847 4.63344C3.32539 3.87701 4.41724 3.55856 5.75548 3.71288L5.91909 3.7315L5.92888 3.89562C5.93035 3.91767 5.93182 3.93971 5.93378 3.96274C5.93819 4.0181 5.94211 4.07542 5.9426 4.13617C5.94309 4.34047 5.9426 4.54525 5.9426 4.74955C5.94211 5.08465 5.94162 5.43102 5.94456 5.77102C5.94848 6.22763 6.27079 6.56224 6.71067 6.56714C7.16622 6.57253 7.49637 6.2384 7.50274 5.77298C7.50813 5.37027 7.50764 4.96021 7.50715 4.56387C7.50715 4.36496 7.50666 4.16655 7.50715 3.96764C7.50715 3.92845 7.51645 3.89807 7.52331 3.87603C7.52527 3.86966 7.52772 3.86231 7.53017 3.853L7.56838 3.70602H17.4729V5.04595C17.4729 5.12335 17.4724 5.20076 17.4719 5.27768C17.471 5.44866 17.4695 5.62503 17.4749 5.79699C17.4886 6.24232 17.83 6.57449 18.2694 6.56616C18.6995 6.55979 19.0272 6.22616 19.0321 5.79013C19.037 5.35606 19.036 4.9122 19.0345 4.48303C19.034 4.29147 19.0335 4.09943 19.0335 3.9064V3.73101L19.2074 3.71141C20.5383 3.56199 21.6263 3.87211 22.3527 4.60943C23.0644 5.33304 23.3681 6.43192 23.2065 7.70522Z" fill="white"/>
<path d="M7.68098 18.4746C7.46447 18.4702 7.24306 18.4712 7.02851 18.4727C6.93054 18.4732 6.83208 18.4737 6.73412 18.4737C6.63321 18.4737 6.5323 18.4732 6.4314 18.4727C6.33245 18.4722 6.23252 18.4717 6.13162 18.4717C6.00867 18.4717 5.88474 18.4727 5.76277 18.4751C5.31995 18.4839 4.9756 18.8274 4.97853 19.2565C4.98147 19.6833 5.31995 20.0238 5.74856 20.0316C6.38682 20.0429 7.04076 20.0429 7.69224 20.0316C8.11987 20.0242 8.45835 19.6842 8.46227 19.258C8.46619 18.8274 8.1233 18.4839 7.68098 18.4746Z" fill="white"/>
<path d="M19.1941 18.4742C18.593 18.4683 17.9803 18.4683 17.3204 18.4737C16.859 18.4776 16.5122 18.8132 16.5137 19.2541C16.5151 19.6912 16.8649 20.0263 17.3273 20.0336C17.535 20.037 17.7471 20.0361 17.9523 20.0351C18.0439 20.0346 18.135 20.0341 18.2266 20.0341C18.2296 20.0341 18.2325 20.0341 18.2355 20.0341C18.3349 20.0341 18.4343 20.0346 18.5333 20.0351C18.7518 20.0361 18.9771 20.037 19.1975 20.0331C19.6472 20.0243 19.9906 19.6912 19.9964 19.259C19.9994 19.0548 19.9225 18.8627 19.7804 18.7172C19.63 18.5629 19.4214 18.4766 19.1941 18.4742Z" fill="white"/>
<path d="M17.2798 14.2686C17.8994 14.2794 18.5534 14.2794 19.224 14.2691C19.6521 14.2623 19.992 13.9232 19.9974 13.4975C20.0028 13.0742 19.6526 12.722 19.2166 12.7122C19.0016 12.7078 18.7811 12.7087 18.5681 12.7097C18.4686 12.7102 18.3707 12.7112 18.2702 12.7107C18.1698 12.7107 18.0689 12.7102 17.9685 12.7097C17.8686 12.7092 17.7672 12.7087 17.6653 12.7087C17.5428 12.7087 17.4204 12.7092 17.2989 12.7117C16.8575 12.72 16.5132 13.0634 16.5147 13.4926C16.5156 13.9203 16.8517 14.2608 17.2798 14.2686Z" fill="white"/>
<path d="M5.76229 14.27C5.97733 14.2754 6.19776 14.2739 6.41035 14.2724C6.50832 14.2719 6.60628 14.2715 6.70474 14.2715C6.70572 14.2715 6.70719 14.2715 6.70817 14.2715C6.8081 14.2715 6.90851 14.2719 7.00844 14.2729C7.22887 14.2744 7.45615 14.2759 7.67854 14.2705C8.12087 14.2597 8.46473 13.9158 8.46179 13.4871C8.45836 13.0501 8.11842 12.7169 7.6707 12.7125C7.04714 12.7062 6.40888 12.7062 5.77307 12.7125C5.33172 12.7169 4.98296 13.057 4.97855 13.4861C4.97463 13.9143 5.31899 14.2587 5.76229 14.27Z" fill="white"/>
<path d="M11.5383 14.2706C11.7519 14.2745 11.9699 14.2735 12.1815 14.2726C12.2829 14.2721 12.3843 14.2721 12.4857 14.2716C12.5792 14.2716 12.6733 14.2721 12.7668 14.2726C12.9775 14.2735 13.1955 14.2745 13.409 14.2711C13.8778 14.2642 14.2192 13.9365 14.2202 13.4921C14.2212 13.0507 13.8749 12.7151 13.4149 12.7112C13.0897 12.7087 12.7766 12.7073 12.471 12.7073C12.1541 12.7073 11.8459 12.7087 11.5408 12.7112C11.0926 12.7151 10.7477 13.0453 10.7394 13.4794C10.7311 13.9144 11.0818 14.2618 11.5383 14.2706Z" fill="white"/>
<path d="M13.4486 18.4746C13.2301 18.4697 13.0057 18.4712 12.7892 18.4722C12.6937 18.4727 12.5977 18.4732 12.5022 18.4737C12.3959 18.4737 12.2906 18.4732 12.1848 18.4722C12.0858 18.4717 11.9854 18.4712 11.885 18.4712C11.7591 18.4712 11.6322 18.4722 11.5078 18.4751C11.0782 18.4859 10.7412 18.8264 10.7402 19.2507C10.7393 19.6691 11.0714 20.0179 11.4804 20.0282C12.103 20.0443 12.754 20.0448 13.4701 20.0296C13.8899 20.0208 14.2269 19.6681 14.2215 19.2443C14.2152 18.8156 13.883 18.4844 13.4486 18.4746Z" fill="white"/>
</g>
<defs>
<clipPath id="clip0_110_984">
<rect width="24.6154" height="24.6154" fill="white" transform="translate(0.179688 0.205078)"/>
</clipPath>
</defs>
</svg>
