<svg width="18" height="22" viewBox="0 0 18 22" fill="none" xmlns="http://www.w3.org/2000/svg">
<path d="M11.8957 22.0001C9.58825 21.8941 7.75774 20.8655 6.60992 18.6951C4.78007 15.2358 3.01815 11.7351 1.22749 8.25123C0.999497 7.80706 0.766927 7.3657 0.543503 6.91872C-0.865636 4.10987 0.587273 0.752297 3.4957 0.0955179C5.32491 -0.317776 7.20572 0.635116 8.15429 2.47003C9.24136 4.57228 10.318 6.68085 11.3998 8.78662C12.2929 10.5247 13.1892 12.2607 14.0789 14.0009C14.6813 15.179 14.5199 16.5073 13.6811 17.383C12.4477 18.6699 10.4846 18.345 9.6268 16.6995C8.79124 15.0976 7.97202 13.4851 7.14496 11.8775C6.56223 10.7443 5.98081 9.6111 5.39611 8.47928C5.22757 8.15229 5.20993 7.82741 5.41114 7.51446C5.74758 6.9938 6.44398 7.05064 6.74646 7.62883C7.22924 8.55155 7.69895 9.48129 8.17454 10.4082C9.10613 12.2235 10.0397 14.0373 10.9693 15.8533C11.1855 16.2757 11.5017 16.5192 11.9571 16.4827C12.7051 16.4224 13.1016 15.5972 12.7306 14.8688C11.9179 13.2732 11.096 11.6825 10.2775 10.0896C9.1205 7.83864 7.96353 5.58833 6.80656 3.33731C6.26433 2.28198 5.43858 1.70659 4.31296 1.70168C2.3015 1.69115 0.939394 4.00111 1.84485 5.93005C2.50793 7.34254 3.25268 8.71083 3.96411 10.0967C5.26546 12.6319 6.55896 15.1713 7.87468 17.6973C8.81346 19.4993 10.2683 20.3638 12.1877 20.2901C14.2671 20.2108 16.1401 18.319 16.3909 16.1003C16.5203 14.953 16.3027 13.8991 15.7821 12.8957C14.0848 9.62654 12.3967 6.35246 10.7054 3.07979C10.4924 2.6679 10.5238 2.28548 10.7949 1.99569C11.0477 1.72554 11.4423 1.65537 11.7363 1.87008C11.8774 1.97323 12.0008 2.13252 12.0851 2.2939C13.393 4.80524 14.6937 7.32009 15.9944 9.83564C16.4373 10.6917 16.89 11.5428 17.3101 12.4115C19.2334 16.388 16.9416 21.231 12.8181 21.9103C12.5137 21.9608 12.2027 21.9713 11.8957 22.0001Z" fill="white"/>
</svg>
