<svg width="135" height="74" viewBox="0 0 135 74" fill="none" xmlns="http://www.w3.org/2000/svg">
<path d="M19.9235 44.3738V34.794C21.879 36.7495 24.556 37.8299 27.5919 37.8299C34.2318 37.8299 39.0696 32.5814 39.0696 24.3449C39.0696 16.1085 34.2318 10.8599 27.5919 10.8599C24.556 10.8599 21.879 11.9921 19.9235 13.9476V11.4798H11.2764C11.2764 22.7157 11.2764 33.1379 11.2764 44.3738C12.044 43.9919 13.8152 43.3817 15.7707 43.3587C17.8586 43.3337 19.1463 43.9862 19.9235 44.3738ZM24.9667 18.9928C28.2099 18.9928 30.3189 21.0001 30.3189 24.3449C30.3189 27.6898 28.208 29.6971 24.9667 29.6971C21.7236 29.6971 19.6145 27.6898 19.6145 24.3449C19.6145 21.0001 21.7255 18.9928 24.9667 18.9928Z" fill="#4BA4D6"/>
<path d="M97.3804 8.75095C100.057 8.75095 101.756 7.10442 101.756 4.37557C101.756 1.69852 100.057 0.000183105 97.3804 0.000183105C94.7033 0.000183105 92.9551 1.69852 92.9551 4.37557C92.9532 7.10442 94.7033 8.75095 97.3804 8.75095Z" fill="#4BA4D6"/>
<path d="M101.703 11.4798H93.0557V37.212H101.703V11.4798Z" fill="#4BA4D6"/>
<path d="M30.6164 46.3658C27.4768 46.3658 24.8017 47.9107 22.9997 50.4323C21.6104 47.9625 19.2423 46.3658 15.6403 46.3658C13.0669 46.3658 10.8542 47.5499 9.20769 49.5054V46.9838H0.560547V72.716H9.20769V58.8721C9.20769 56.0934 10.7007 54.4968 12.9133 54.4968C14.9206 54.4968 16.1565 56.4523 16.1565 58.9739V72.716H24.7518V59.3346C24.7518 56.2469 26.1412 54.4968 28.4575 54.4968C30.4648 54.4968 31.7006 56.4523 31.7006 58.9739V72.716H40.2959V58.615C40.2921 51.9233 37.7187 46.3658 30.6164 46.3658Z" fill="#4BA4D6"/>
<path d="M54.755 55.579C54.755 54.2415 56.248 53.6236 58.3052 53.6236C60.4661 53.6236 62.4235 55.0647 62.7305 56.5577H71.6847V54.963C70.1418 50.1252 65.4056 46.3677 58.2016 46.3677C50.7903 46.3677 45.6435 50.2269 45.6435 54.8594C45.6435 64.6388 62.6787 61.2421 62.6787 64.3816C62.6787 65.462 61.2893 66.3889 58.7677 66.3889C56.6069 66.3889 54.3923 65.1531 53.8262 63.3012H44.8701V64.8959C46.5685 70.1464 52.4867 73.3358 59.0229 73.3358C67.0522 73.3358 71.9917 69.8873 71.9917 65.1531C71.9956 55.5272 54.755 59.5917 54.755 55.579Z" fill="#4BA4D6"/>
<path d="M95.2599 59.0256L103.752 48.1678V46.9837H95.1045L87.745 56.6076H85.9948V37.212H86.0063V1.18613H77.3592V36.6901H77.3496V72.716H85.9948V63.092H87.8486L95.3098 72.716H104.419V71.5319L95.2599 60.1079V59.0256Z" fill="#4BA4D6"/>
<path d="M124.041 38.5976C124.231 38.4268 124.427 38.2349 124.624 38.0084C124.868 37.7302 125.064 37.4596 125.221 37.214L135.001 13.1282V11.4817H126.662L121.001 26.4578H120.487L115.187 11.4817H106.23V13.1282L115.444 37.214C115.553 37.4538 115.724 37.7647 115.994 38.0814C116.146 38.2598 116.302 38.4076 116.451 38.5304C116.449 38.5304 116.449 38.5304 116.447 38.5304C117.013 39.133 118.904 40.9426 118.814 43.2934C118.752 44.8997 117.735 46.0837 117.004 46.8245C115.655 47.8262 114.78 49.4305 114.78 51.2401C114.78 54.2741 117.24 56.7343 120.274 56.7343C123.308 56.7343 125.768 54.2741 125.768 51.2401C125.768 49.5303 124.987 48.0008 123.761 46.9933C123.062 46.2046 121.938 44.8824 121.888 43.1534C121.824 40.9695 123.419 39.3249 124.041 38.5976Z" fill="#4BA4D6"/>
<path d="M61.515 11.3224C61.4306 11.4069 61.3462 11.4856 61.2617 11.5604C60.64 12.2896 59.0453 13.9323 59.1067 16.1181C59.1546 17.8471 60.2811 19.1694 60.9796 19.9581C61.2368 20.1711 61.4747 20.4071 61.6897 20.6624C61.9718 20.9809 62.2117 21.3417 62.4016 21.7409C62.7739 22.4816 62.9869 23.3183 62.9869 24.2049C62.9869 24.535 62.9562 24.8574 62.9006 25.1721C62.5705 28.018 60.5056 29.6991 57.4928 29.6991C54.4799 29.6991 52.415 28.018 52.0849 25.1702C52.0293 24.8574 51.9986 24.535 51.9986 24.2049C51.9986 23.2991 52.2174 22.4451 52.6069 21.691C52.7911 21.3187 53.0157 20.9809 53.2805 20.6796C53.5588 20.3476 53.8754 20.0483 54.2247 19.7892C54.9577 19.0465 55.9729 17.8644 56.0343 16.2582C56.1245 13.9055 54.2343 12.0977 53.6681 11.4952H53.672C53.6087 11.4433 53.5434 11.3839 53.4782 11.3224C47.416 12.7636 43.29 17.5305 43.29 24.3469C43.29 32.5814 49.3119 37.8319 57.4947 37.8319C65.6774 37.8319 71.6993 32.5834 71.6993 24.3469C71.6993 17.5324 67.5734 12.7656 61.515 11.3224Z" fill="#4BA4D6"/>
</svg>
