<svg width="172" height="172" viewBox="0 0 172 172" fill="none" xmlns="http://www.w3.org/2000/svg">
<g filter="url(#filter0_d_254_2517)">
<circle cx="86" cy="86" r="36" fill="#4AA4D7"/>
</g>
<path d="M69 79.5901C69.0698 70.9116 75.3369 63.5918 83.8982 62.2119C93.0001 60.7444 101.909 67.0609 103.692 76.1632C104.425 79.9099 103.786 83.4375 102.414 86.9067C100.837 90.8986 98.7558 94.6291 96.309 98.1324C93.7843 101.748 91.0761 105.235 88.4443 108.775C88.3111 108.954 88.1618 109.121 88.0108 109.283C87.1438 110.223 85.8481 110.256 85.0363 109.267C79.7239 102.814 74.7784 96.1145 71.2925 88.457C70.1998 86.0561 69.3539 83.569 69.0861 80.9213C69.0422 80.4798 69.0276 80.0349 69 79.5901Z" fill="white"/>
<path d="M89.1888 70.9991C89.1323 71.0533 89.0759 71.1037 89.0194 71.1517C88.6036 71.6194 87.537 72.6728 87.5781 74.0745C87.6102 75.1833 88.3636 76.0312 88.8307 76.537C89.0027 76.6736 89.1618 76.825 89.3056 76.9886C89.4943 77.1929 89.6547 77.4243 89.7818 77.6803C90.0307 78.1553 90.1732 78.6918 90.1732 79.2604C90.1732 79.4721 90.1527 79.6788 90.1154 79.8806C89.8947 81.7057 88.5137 82.7837 86.4987 82.7837C84.4837 82.7837 83.1027 81.7057 82.882 79.8794C82.8448 79.6788 82.8242 79.4721 82.8242 79.2604C82.8242 78.6795 82.9705 78.1319 83.2311 77.6483C83.3543 77.4095 83.5045 77.1929 83.6816 76.9997C83.8677 76.7868 84.0794 76.5948 84.313 76.4287C84.8033 75.9525 85.4822 75.1944 85.5233 74.1643C85.5836 72.6556 84.3194 71.4963 83.9408 71.1099H83.9434C83.901 71.0767 83.8574 71.0385 83.8138 70.9991C79.7594 71.9234 77 74.9803 77 79.3515C77 84.6321 81.0274 87.9991 86.5 87.9991C91.9726 87.9991 96 84.6334 96 79.3515C96 74.9815 93.2406 71.9246 89.1888 70.9991Z" fill="#4BA4D6"/>
<defs>
<filter id="filter0_d_254_2517" x="0" y="0" width="172" height="172" filterUnits="userSpaceOnUse" color-interpolation-filters="sRGB">
<feFlood flood-opacity="0" result="BackgroundImageFix"/>
<feColorMatrix in="SourceAlpha" type="matrix" values="0 0 0 0 0 0 0 0 0 0 0 0 0 0 0 0 0 0 127 0" result="hardAlpha"/>
<feOffset/>
<feGaussianBlur stdDeviation="25"/>
<feComposite in2="hardAlpha" operator="out"/>
<feColorMatrix type="matrix" values="0 0 0 0 0.291076 0 0 0 0 0.643454 0 0 0 0 0.841667 0 0 0 0.7 0"/>
<feBlend mode="normal" in2="BackgroundImageFix" result="effect1_dropShadow_254_2517"/>
<feBlend mode="normal" in="SourceGraphic" in2="effect1_dropShadow_254_2517" result="shape"/>
</filter>
</defs>
</svg>
