<svg width="44" height="44" viewBox="0 0 44 44" fill="none" xmlns="http://www.w3.org/2000/svg">
<path d="M41.1855 38.427C41.5716 38.4282 41.9578 38.4282 42.3439 38.4258C43.2848 38.4177 43.9814 37.7756 44 36.8985C44.0093 36.474 43.8593 36.0785 43.579 35.7853C43.2813 35.4759 42.8591 35.3003 42.3881 35.291C41.6647 35.277 40.9273 35.2805 40.2144 35.2828C39.8958 35.284 39.5806 35.2863 39.2584 35.2851H38.4292V27.8684C38.4292 22.2175 38.4304 16.5654 38.4269 10.9145C38.4257 8.3496 36.7556 6.2558 34.2715 5.70327C33.8877 5.61836 33.455 5.57764 32.9096 5.57764C26.5584 5.57183 20.1014 5.57183 13.8561 5.57183H8.71324V4.47956C8.71324 4.19457 8.7144 3.91075 8.7144 3.62576C8.71557 2.99297 8.71789 2.33807 8.71091 1.69598C8.70161 0.696769 8.05382 0 7.13853 0H7.13737C6.22092 0.00116322 5.57778 0.699096 5.57429 1.6983C5.57196 2.41136 5.5708 3.12325 5.5708 3.8363C5.5708 4.27018 5.56964 4.7029 5.56964 5.13678C5.56964 5.19146 5.55801 5.23333 5.54754 5.27521C5.54289 5.29266 5.53707 5.31476 5.53009 5.34616L5.47776 5.57183H4.41012C4.16472 5.57183 3.91933 5.57532 3.67394 5.57881C3.12616 5.58579 2.55978 5.59393 2.00037 5.56369C0.960643 5.50669 0.324479 5.90335 0 6.81066V7.49231C0.341924 8.39031 0.981577 8.76952 2.06782 8.72183C2.7947 8.69042 3.50879 8.6974 4.26591 8.70555C4.59969 8.70903 4.93696 8.71253 5.28121 8.71253H5.57196V15.9268C5.57196 21.5812 5.57196 27.2357 5.57196 32.8901C5.57196 36.1494 7.84913 38.427 11.1102 38.427C16.6635 38.427 22.2169 38.427 27.7703 38.427H35.2868V41.007C35.2868 41.1012 35.2891 41.1955 35.2903 41.2885C35.2949 41.5014 35.2996 41.7212 35.2821 41.9423C35.2007 42.995 35.5903 43.6499 36.5068 44H37.1883C38.0989 43.6708 38.485 43.052 38.4385 41.9981C38.4059 41.2513 38.4129 40.5185 38.4211 39.7438C38.4245 39.4064 38.428 39.0645 38.428 38.7178V38.427H40.6482C40.8262 38.427 41.0064 38.427 41.1855 38.427ZM35.2879 32.8377C35.2879 34.4616 34.4645 35.2851 32.841 35.2851C29.2275 35.2851 25.614 35.2851 22.0006 35.2851C18.3871 35.2851 14.7737 35.2851 11.1602 35.2851C9.53665 35.2851 8.7144 34.4616 8.7144 32.8377C8.7144 25.6118 8.7144 18.3847 8.7144 11.1588C8.7144 9.53609 9.53781 8.71253 11.1602 8.71253C13.7409 8.71253 16.3216 8.71253 18.9035 8.71253H22.0006H25.0488C27.6458 8.71253 30.2428 8.71253 32.8398 8.71253C34.4634 8.71253 35.2868 9.53609 35.2868 11.1588C35.2879 18.3847 35.2879 25.6118 35.2879 32.8377Z" fill="white"/>
<path d="M31.4179 11.1576C29.0663 11.1332 26.5496 11.132 23.7223 11.1565C23.0861 11.1623 22.5326 11.6287 22.3465 12.3185C22.1685 12.9781 22.4174 13.6539 22.9536 13.9621C23.2513 14.1343 23.6525 14.246 24.0514 14.2692C24.6562 14.3041 25.2668 14.2983 25.9134 14.2902C26.1891 14.2867 26.4717 14.2844 26.7624 14.2844H27.4242L26.9776 14.7717C26.9183 14.8369 26.8671 14.8927 26.8229 14.9427C26.7357 15.0404 26.6659 15.1172 26.5903 15.1917L26.0727 15.7105C24.9842 16.8004 23.8968 17.8903 22.8047 18.9768C22.3186 19.4619 22.165 19.99 22.3383 20.5948C22.4953 21.1415 22.8873 21.5347 23.4141 21.6743C23.9631 21.8185 24.5527 21.651 24.9877 21.223C25.8518 20.375 26.7217 19.5026 27.5626 18.6592C27.9766 18.244 28.3906 17.8287 28.8058 17.4146C28.8802 17.3401 28.957 17.2703 29.0535 17.1819C29.1047 17.1354 29.1605 17.0842 29.2268 17.0226L29.7153 16.5712V17.4914C29.7153 17.6344 29.7141 17.7519 29.7164 17.8694C29.7199 18.1311 29.7188 18.3952 29.7164 18.6522C29.713 19.2315 29.7083 19.8318 29.7688 20.4064C29.849 21.1857 30.5654 21.7569 31.3958 21.7034C32.189 21.6534 32.8403 20.9938 32.8461 20.2331C32.867 17.7624 32.8682 15.2033 32.8473 12.6244C32.8391 11.8381 32.1855 11.1658 31.4179 11.1576Z" fill="white"/>
<path d="M17.6274 29.711C17.539 29.711 17.4576 29.6982 17.3623 29.6831C17.3169 29.6761 17.2657 29.668 17.2064 29.661L16.6168 29.5854L17.9286 28.2791C18.6927 27.5183 19.4347 26.7797 20.1767 26.0399C20.2802 25.9363 20.3837 25.8351 20.4884 25.7328C20.7606 25.4664 21.042 25.1907 21.2967 24.9057C21.8642 24.2718 21.8433 23.3435 21.2479 22.7479C20.6489 22.1489 19.7394 22.1314 19.087 22.7049C18.9753 22.8026 18.8707 22.9096 18.759 23.0225L18.6648 23.1179L14.5594 27.2287L14.385 26.8495C14.3698 26.8181 14.3594 26.796 14.3501 26.7785C14.3268 26.7331 14.2942 26.6715 14.2942 26.5866C14.2931 26.276 14.2931 25.9666 14.2931 25.6572C14.2931 25.107 14.2919 24.537 14.2849 23.9775C14.2721 22.9829 13.6255 22.2896 12.7114 22.2896C12.7091 22.2896 12.7056 22.2896 12.7033 22.2896C11.788 22.2943 11.1483 22.9957 11.1471 23.9949C11.1437 26.3481 11.1437 28.7502 11.1471 31.1336C11.1483 32.2084 11.7915 32.8505 12.8661 32.8517C15.234 32.8552 17.6356 32.8552 20.0046 32.8517C21.0048 32.8505 21.7061 32.2096 21.7096 31.2941C21.7142 30.3752 21.0187 29.7249 20.0209 29.7145C19.544 29.7087 19.0591 29.7098 18.5904 29.711C18.2682 29.7122 17.9484 29.7122 17.6274 29.711Z" fill="white"/>
</svg>
