<svg width="44" height="44" viewBox="0 0 44 44" fill="none" xmlns="http://www.w3.org/2000/svg">
<path d="M42.6053 41.9562C42.6006 41.9562 42.596 41.9562 42.5902 41.9562C38.5804 41.9724 34.5044 41.9701 30.5631 41.9678C29.2613 41.9666 27.9595 41.9666 26.6565 41.9666H25.8687V34.3508L26.0683 34.2845C27.1937 33.9123 27.2494 33.8343 27.2494 32.6211C27.2494 32.2535 27.2494 31.8859 27.2483 31.5183C27.2471 30.4667 27.2448 29.3791 27.2575 28.3101C27.261 28.0088 27.3318 27.7005 27.4583 27.4423C28.0013 26.329 28.5651 25.2018 29.1093 24.113C29.346 23.6408 29.5815 23.1673 29.817 22.6939C30.0642 22.1972 30.0955 21.7551 29.9064 21.4492C29.7207 21.1479 29.3216 20.9816 28.7833 20.9816C24.2978 20.9804 19.8111 20.9804 15.3256 20.9816C14.793 20.9816 14.3951 21.1514 14.2059 21.4585C14.018 21.7633 14.0435 22.189 14.2767 22.659C14.518 23.1441 14.7605 23.6291 15.003 24.113C15.5356 25.1786 16.0867 26.279 16.6158 27.3701C16.7654 27.6784 16.8501 28.0448 16.8548 28.4008C16.8675 29.364 16.8664 30.3411 16.8652 31.2868C16.8652 31.9068 16.8641 32.5268 16.8675 33.1469C16.8699 33.7041 17.1657 34.0623 17.7226 34.1845C17.7946 34.2008 17.8654 34.2194 17.935 34.238L18.2343 34.3159V41.9678H1.36434C1.246 41.9666 1.13461 41.9655 1.03019 41.9771C0.560292 42.026 0.2157 42.3459 0.131002 42.8112C0.0532652 43.2404 0.267911 43.672 0.665875 43.886C0.728528 43.9197 0.790021 43.957 0.850354 43.9942L0.860796 44H43.2713C43.5938 43.8406 43.834 43.5998 44.001 43.2672V42.7006C43.7516 42.1725 43.342 41.9562 42.6053 41.9562ZM23.8081 41.9376H20.3065V34.2333H23.8081V41.9376ZM25.2085 32.1441H18.9212V28.6334H25.2085V32.1441ZM25.1621 26.564C24.1342 26.5687 23.1004 26.571 22.0666 26.571C21.0247 26.571 19.984 26.5687 18.9513 26.564C18.7796 26.5629 18.4629 26.4768 18.3434 26.2464C17.9744 25.5357 17.624 24.8308 17.2539 24.0828L16.733 23.0335H27.3805L26.8573 24.0875C26.4871 24.8331 26.1391 25.5369 25.7701 26.2453C25.6506 26.4756 25.3339 26.5629 25.1621 26.564Z" fill="white"/>
<path d="M42.6167 20.9734C42.4091 20.9909 42.2025 20.9874 42.0041 20.9827C41.8661 20.9804 41.735 20.9781 41.6038 20.9816C41.0144 21.0013 40.5863 21.4248 40.584 21.9901C40.5828 22.5485 41.0179 22.9859 41.5969 23.0068C41.7292 23.0114 41.8626 23.0091 42.0041 23.0056C42.0911 23.0033 42.1793 23.0021 42.2675 23.0021C42.38 23.0021 42.4938 23.0056 42.6086 23.0149C43.2862 23.0719 43.7283 22.8381 43.9986 22.2809V21.7109C43.7364 21.1433 43.3082 20.9153 42.6167 20.9734Z" fill="white"/>
<path d="M21.0505 2.46958C21.0877 2.99886 21.5274 3.41531 22.053 3.4188C22.0553 3.4188 22.0565 3.4188 22.0588 3.4188C22.5832 3.4188 23.0322 3.00235 23.0613 2.48703C23.0926 1.94379 23.0914 1.41568 23.0578 0.916643C23.0218 0.37573 22.6111 0 22.0588 0C22.0542 0 22.0507 0 22.0472 0C21.5019 0.00581626 21.0923 0.395506 21.0529 0.94805C21.0413 1.11323 21.0436 1.28074 21.0471 1.45872C21.0482 1.54247 21.0505 1.62623 21.0505 1.70882L21.0459 1.99963C21.0424 2.16249 21.0401 2.3172 21.0505 2.46958Z" fill="white"/>
<path d="M18.4107 17.6756C18.5928 17.9676 18.8655 18.1409 19.159 18.1537C19.5686 18.1584 19.9178 17.985 20.1185 17.6721C20.3042 17.3836 20.3228 17.0347 20.1696 16.7136C19.977 16.31 19.7368 15.8912 19.4131 15.3945C19.0964 14.9082 18.5522 14.7779 18.0603 15.0699C17.566 15.3631 17.421 15.8923 17.6902 16.4181C17.8886 16.8055 18.1171 17.2057 18.4107 17.6756Z" fill="white"/>
<path d="M24.8401 18.156C24.8413 18.156 24.8425 18.156 24.8436 18.156C25.2021 18.1525 25.4701 18.0188 25.6407 17.757C25.9969 17.2138 26.258 16.7601 26.4645 16.3274C26.6896 15.854 26.5155 15.3328 26.0387 15.0606C25.8693 14.9641 25.6918 14.9164 25.52 14.9164C25.2137 14.9164 24.926 15.0653 24.7357 15.3456C24.4132 15.8214 24.144 16.2879 23.934 16.7311C23.7855 17.0463 23.8064 17.3953 23.992 17.6884C24.1788 17.9816 24.4944 18.156 24.8401 18.156Z" fill="white"/>
<path d="M1.08367 23.1208C1.24378 23.1313 1.40506 23.1289 1.57445 23.1255C1.59418 23.1255 1.61506 23.1243 1.63479 23.1243V23.1185H1.80882C1.89584 23.1185 1.98402 23.1208 2.07104 23.1231C2.26016 23.1278 2.43884 23.1324 2.61403 23.115C3.2278 23.0557 3.64897 22.5869 3.63853 21.975C3.62809 21.3573 3.193 20.9036 2.58039 20.8722C2.34022 20.8594 2.09192 20.8536 1.83435 20.8536C1.58954 20.8536 1.33776 20.8594 1.08019 20.8711C0.444374 20.899 0.00116025 21.3608 0 21.9924C0.00232049 22.6159 0.446695 23.0801 1.08367 23.1208Z" fill="white"/>
<path d="M32.0522 16.1913C32.3225 16.6659 32.9107 16.8427 33.3922 16.595C33.7844 16.3926 34.2056 16.1494 34.6813 15.8493C34.9957 15.6504 35.1407 15.3689 35.1442 15.2305C35.1454 14.7407 34.9539 14.3394 34.6175 14.1289C34.4689 14.0358 34.3042 13.9893 34.136 13.9893C33.9898 13.9893 33.8401 14.0242 33.6974 14.0951C33.2832 14.2999 32.8516 14.55 32.3782 14.8582C31.9257 15.1514 31.7865 15.7248 32.0522 16.1913Z" fill="white"/>
<path d="M22.031 10.4065C22.0391 10.4065 22.0461 10.4065 22.0542 10.4065C22.6135 10.4065 23.0369 9.99583 23.0659 9.42234C23.0741 9.26996 23.0717 9.11641 23.0694 8.95472C23.0683 8.88376 23.0671 8.81396 23.0671 8.743C23.0671 8.65692 23.0683 8.57084 23.0694 8.4836C23.0717 8.30795 23.0741 8.1416 23.0648 7.97758C23.0311 7.40294 22.6193 6.99813 22.0635 6.99231C22.06 6.99231 22.0554 6.99231 22.0519 6.99231C21.4915 6.99231 21.0703 7.41224 21.0494 7.99503C21.0332 8.44521 21.0332 8.90702 21.0483 9.40838C21.0645 9.96674 21.488 10.3948 22.031 10.4065Z" fill="white"/>
<path d="M27.8269 11.9629C28.2956 12.2386 28.856 12.1106 29.16 11.6581C29.4709 11.1951 29.7331 10.7415 29.942 10.3076C30.094 9.99 30.0777 9.63987 29.8956 9.34556C29.7146 9.05242 29.3978 8.87445 29.0498 8.87096C28.6622 8.87212 28.3768 9.02916 28.1761 9.35138C27.8779 9.83297 27.647 10.2331 27.4509 10.6089C27.1968 11.0963 27.3628 11.6907 27.8269 11.9629Z" fill="white"/>
<path d="M8.06567 23.0045C8.2049 23.0138 8.34529 23.0126 8.49264 23.0103V23.0033H8.7827C8.87088 23.0033 8.95906 23.0056 9.04724 23.008C9.23288 23.0126 9.40808 23.0173 9.57747 23.001C10.1367 22.9486 10.4941 22.5473 10.4894 21.9796C10.4848 21.4166 10.1089 21.0188 9.55543 20.9897C9.31526 20.9769 9.06928 20.9711 8.81287 20.9711C8.57386 20.9711 8.32673 20.9769 8.06799 20.9874C7.50759 21.0107 7.09803 21.4329 7.09571 21.9913C7.09455 22.5496 7.49251 22.9672 8.06567 23.0045Z" fill="white"/>
<path d="M33.6133 21.9948C33.6133 22.5496 34.0217 22.9754 34.5844 23.0068C34.7434 23.0161 34.9035 23.0126 35.0729 23.0103C35.1529 23.0091 35.2318 23.0091 35.3119 23.008C35.3896 23.008 35.4662 23.0091 35.5439 23.0103C35.711 23.0126 35.8688 23.0149 36.0243 23.0068C36.609 22.9742 37.0267 22.5415 37.0151 21.9773C37.0035 21.4155 36.5974 21.0083 36.0278 20.9862C35.7818 20.9769 35.537 20.9723 35.2956 20.9723C35.0531 20.9723 34.8141 20.9769 34.5786 20.9862C34.0286 21.0072 33.6133 21.4422 33.6133 21.9948Z" fill="white"/>
<path d="M15.3076 11.9699C15.6441 12.2351 16.1349 12.1129 16.4238 11.864C16.7753 11.5616 16.8844 11.0742 16.6883 10.6787C16.4447 10.1889 16.1755 9.71897 15.8866 9.28275C15.6476 8.92098 15.1951 8.77441 14.7623 8.91749C14.2135 9.0978 14.0859 9.60963 14.0801 10.0261C14.3272 10.6659 14.6405 11.4452 15.3076 11.9699Z" fill="white"/>
<path d="M9.39493 15.8214C9.86831 16.1273 10.3127 16.3844 10.7536 16.6066C11.2119 16.8369 11.7966 16.6531 12.0589 16.196C12.3176 15.7435 12.1911 15.1676 11.77 14.885C11.2815 14.5569 10.8278 14.294 10.3846 14.0835C10.0714 13.9346 9.7256 13.9544 9.43554 14.1382C9.14199 14.3243 8.9668 14.6453 8.9668 14.999C8.96796 15.3619 9.11183 15.6388 9.39493 15.8214Z" fill="white"/>
<path d="M3.34282 12.32C3.83709 12.648 4.2919 12.9098 4.73164 13.118C5.0391 13.2634 5.38138 13.2413 5.67028 13.0575C5.96614 12.8679 6.14134 12.5433 6.13902 12.1897C6.13438 11.8291 5.98702 11.5534 5.70276 11.3696C5.20386 11.0486 4.75832 10.7927 4.34412 10.5879C4.20953 10.5216 4.0645 10.489 3.92063 10.489C3.58067 10.489 3.24652 10.667 3.06088 10.9788C2.78475 11.4417 2.90889 12.0304 3.34282 12.32Z" fill="white"/>
<path d="M38.4906 13.0645C38.7725 13.2413 39.1113 13.2553 39.4211 13.1029C39.8898 12.8714 40.3342 12.598 40.7055 12.3619C41.1916 12.0536 41.3401 11.458 41.0512 10.9764C40.7716 10.51 40.188 10.3564 39.6937 10.6182C39.2459 10.8555 38.8062 11.1195 38.4743 11.3243C38.139 11.5302 37.9835 11.821 37.9766 12.0187C37.9743 12.477 38.1622 12.8574 38.4906 13.0645Z" fill="white"/>
<path d="M11.4644 5.59524C11.7695 6.04891 12.3288 6.1792 12.7963 5.90351C13.2628 5.62898 13.4298 5.03456 13.1769 4.54832C12.9704 4.15281 12.7325 3.74218 12.4285 3.25594C12.2545 2.97909 11.9818 2.82554 11.6164 2.79995C11.2497 2.80809 10.9214 2.99189 10.7357 3.29317C10.5547 3.58514 10.5373 3.93179 10.6858 4.24238C10.8982 4.68791 11.1604 5.14274 11.4644 5.59524Z" fill="white"/>
<path d="M31.3367 5.91281C31.8402 6.19664 32.4018 6.02215 32.7348 5.47891C32.9355 5.15088 33.1675 4.76351 33.3659 4.37033C33.4321 4.23889 33.475 4.08301 33.5063 3.96901C33.5133 3.94342 33.5202 3.92016 33.526 3.89922C33.5063 3.37808 33.2557 2.99188 32.8496 2.86043C32.7382 2.82437 32.6269 2.80692 32.5166 2.80692C32.186 2.80692 31.8785 2.96513 31.694 3.24663C31.4527 3.61655 31.2322 4.0167 31.0199 4.40407L30.9863 4.46456C30.6765 5.02641 30.8204 5.62199 31.3367 5.91281Z" fill="white"/>
</svg>
