<svg width="46" height="44" viewBox="0 0 46 44" fill="none" xmlns="http://www.w3.org/2000/svg">
<path d="M5.84749 34.2059C5.84749 33.6721 5.86235 33.1517 5.83708 32.6328C5.83114 32.4967 5.73307 32.2979 5.62013 32.244C4.23373 31.5681 3.52642 29.367 4.16241 27.5981C4.66466 26.1999 5.317 24.8541 5.95002 23.5083C6.26801 22.8324 7.23092 22.7532 7.52959 23.4081C8.26663 25.0261 9.06905 26.65 9.51335 28.3577C9.90862 29.8784 9.37516 31.3095 7.94269 32.2321C7.84016 32.2979 7.74209 32.4564 7.73763 32.576C7.71534 33.1143 7.72871 33.6541 7.72871 34.2014C9.17604 33.6422 10.5877 33.1038 11.9949 32.5506C12.4585 32.3681 12.8939 32.3009 13.2758 32.7031C13.6399 33.0859 13.5611 33.5091 13.3887 33.9517C12.9519 35.0792 12.5477 36.2201 12.0989 37.3446C11.5565 38.7038 10.5936 39.6414 9.17752 40.0362C8.74214 40.1573 8.26812 40.1379 7.76735 40.1857C7.76735 40.7719 7.76735 41.391 7.76735 42.0429C10.8626 42.0429 13.9341 42.0429 17.0457 42.0429C17.0457 36.9812 17.0457 31.9345 17.0457 26.7966C16.5122 26.7966 15.9654 26.801 15.4186 26.7951C14.5775 26.7876 14.2253 26.4481 14.2253 25.6078C14.2209 22.6231 14.2134 19.6369 14.2268 16.6523C14.2342 14.7951 15.5151 13.4852 17.3577 13.4194C17.8748 13.4014 18.392 13.4164 18.9002 13.4164C19.0443 12.8362 19.1765 12.3009 19.3222 11.7102C19.1379 11.5906 18.9239 11.4515 18.71 11.3124C18.1557 10.9521 17.9952 10.4287 18.2894 9.93674C18.5732 9.46123 19.126 9.36404 19.6996 9.69002C19.7635 9.7259 19.8348 9.75731 19.8883 9.80665C20.3817 10.2567 20.8809 10.321 21.4174 9.77824C21.2212 9.22796 20.7368 8.58647 21.4679 8.03319C21.9181 7.69375 22.3773 7.82684 22.7681 8.19918C23.205 7.83731 23.6612 7.68478 24.107 8.04964C24.7861 8.6074 24.3759 9.22497 24.1099 9.7917C24.6315 10.2463 25.1263 10.321 25.6375 9.83955C25.7296 9.75282 25.8545 9.69749 25.9704 9.63917C26.48 9.37899 27.0105 9.51357 27.278 9.96665C27.538 10.4093 27.4236 10.9087 26.9689 11.2407C26.7312 11.4141 26.4756 11.5637 26.2378 11.7177C26.3716 12.2695 26.4979 12.7883 26.6509 13.4179C27.0046 13.4179 27.4221 13.4164 27.8397 13.4179C30.0701 13.4224 31.3332 14.6829 31.3347 16.9095C31.3362 19.764 31.3362 22.6186 31.3347 25.4732C31.3347 26.493 31.0256 26.7966 29.9973 26.7981C29.5159 26.7995 29.0359 26.7981 28.5128 26.7981C28.5128 31.8896 28.5128 36.9498 28.5128 42.0414C31.6244 42.0414 34.7123 42.0414 37.8298 42.0414C37.8298 41.3984 37.8298 40.7898 37.8298 40.1917C37.335 40.1424 36.8446 40.1603 36.3944 40.0347C35.002 39.6459 34.0376 38.7293 33.4953 37.3924C33.0198 36.2201 32.6007 35.0253 32.1475 33.8425C31.987 33.4253 31.9811 33.0395 32.305 32.7016C32.6468 32.3442 33.045 32.3442 33.4819 32.5147C34.9114 33.0724 36.3453 33.6212 37.8536 34.2029C37.8536 33.6302 37.861 33.059 37.8447 32.4908C37.8417 32.4055 37.7392 32.3053 37.6589 32.244C36.1328 31.0822 35.5355 29.3461 36.1938 27.5577C36.7005 26.1805 37.335 24.8481 37.9769 23.5263C38.1003 23.2721 38.5252 23.0283 38.8091 23.0298C39.0929 23.0313 39.5089 23.2825 39.6338 23.5382C40.2668 24.8422 40.8849 26.161 41.3917 27.5188C42.0663 29.3237 41.4912 31.0194 39.9295 32.253C39.8314 32.3308 39.7497 32.4893 39.7437 32.6134C39.7229 33.1338 39.7348 33.6541 39.7348 34.2164C40.5253 33.9053 41.2698 33.6063 42.0187 33.3162C42.7439 33.0351 43.4765 32.7719 44.2001 32.4863C44.6058 32.3263 44.9669 32.3741 45.276 32.6807C45.5865 32.9887 45.6296 33.3595 45.4751 33.7633C45.0055 34.9984 44.5939 36.259 44.056 37.4627C43.2446 39.281 41.8493 40.2635 39.7675 40.1424C39.7675 40.7614 39.7675 41.3685 39.7675 42.0369C39.974 42.0489 40.1702 42.0698 40.3649 42.0698C41.7379 42.0728 43.1094 42.0609 44.4824 42.0773C45.267 42.0863 45.7648 42.665 45.4989 43.2885C45.3844 43.5562 45.0813 43.7745 44.8138 43.93C44.6414 44.0302 44.3799 43.9868 44.1585 43.9868C29.8978 43.9883 15.6355 43.9883 1.37475 43.9868C1.15334 43.9868 0.925985 43.9838 0.712007 43.9345C0.257303 43.8298 0.00766184 43.5009 0.000232037 43.0523C-0.00868373 42.5767 0.239472 42.2283 0.720923 42.1207C0.952733 42.0683 1.1994 42.0728 1.43864 42.0728C2.883 42.0683 4.32735 42.0713 5.81034 42.0713C5.81034 41.4134 5.81034 40.8078 5.81034 40.1678C5.75387 40.1543 5.68403 40.1184 5.62162 40.1274C3.96477 40.3921 2.1415 39.0508 1.53523 37.524C1.03892 36.2829 0.544093 35.0358 0.126539 33.7648C0.0254934 33.4567 0.13694 32.9842 0.319714 32.6971C0.561925 32.3173 1.00771 32.3412 1.42824 32.5042C2.87557 33.068 4.32735 33.6212 5.84749 34.2059ZM29.4089 24.8571C29.4193 24.6448 29.4356 24.4638 29.4356 24.2814C29.4371 21.8201 29.4386 19.3588 29.4356 16.8975C29.4341 15.7566 29.0255 15.3364 27.8991 15.3364C24.4889 15.3334 21.0786 15.3334 17.6683 15.3364C16.536 15.3379 16.1259 15.7536 16.1259 16.8915C16.1229 19.3723 16.1244 21.8515 16.1259 24.3323C16.1259 24.5102 16.1422 24.6881 16.1511 24.8586C20.6031 24.8571 24.9896 24.8571 29.4089 24.8571ZM26.5306 42.0459C26.5306 36.9468 26.5306 31.8881 26.5306 26.8384C23.9985 26.8384 21.508 26.8384 19.0176 26.8384C19.0176 31.924 19.0176 36.9708 19.0176 42.0459C21.5259 42.0459 24.003 42.0459 26.5306 42.0459ZM20.9211 13.3999C22.1826 13.3999 23.4086 13.3999 24.636 13.3999C24.578 12.2829 23.7741 11.5038 22.7414 11.5248C21.725 11.5442 20.9285 12.3487 20.9211 13.3999ZM38.7957 26.2373C38.4866 26.9416 38.2266 27.4754 38.017 28.0287C37.7317 28.7809 37.7674 29.5315 38.1968 30.2224C38.5238 30.7487 39.0275 30.7652 39.347 30.2418C39.5327 29.9382 39.6486 29.5644 39.7006 29.207C39.8567 28.1379 39.1954 27.3139 38.7957 26.2373ZM42.9861 34.973C42.2045 35.293 41.5596 35.5113 40.9578 35.8179C40.3797 36.1124 39.9607 36.6059 39.8165 37.2534C39.7601 37.5091 39.7987 37.9038 39.9622 38.0594C40.1271 38.2164 40.5253 38.2493 40.7735 38.1745C41.4764 37.9637 41.9905 37.4807 42.2862 36.8003C42.5195 36.2575 42.7097 35.6967 42.9861 34.973ZM6.82079 26.3988C6.73609 26.3928 6.65288 26.3853 6.56818 26.3794C6.32299 27.2781 5.97379 28.1648 5.86235 29.0814C5.75684 29.9487 6.25167 30.6037 6.74649 30.6067C7.23537 30.6096 7.64104 29.9696 7.69751 29.0934C7.76289 28.0721 7.16108 27.281 6.82079 26.3988ZM2.72846 35.0493C2.69428 35.0822 2.65862 35.1151 2.62444 35.148C2.86814 35.761 3.02119 36.4369 3.38228 36.9693C3.70622 37.4478 4.22482 37.8276 4.72856 38.1326C4.94254 38.2627 5.42696 38.1984 5.61865 38.0295C5.7821 37.8859 5.82965 37.379 5.70186 37.1801C5.37346 36.6657 4.98563 36.1379 4.49675 35.7954C3.98261 35.4366 3.32433 35.29 2.72846 35.0493ZM10.9532 34.9969C9.87741 35.4515 8.82535 35.604 8.15667 36.5087C7.70642 37.1173 7.59795 37.7932 7.91743 38.0863C8.22056 38.3644 8.86696 38.2418 9.445 37.8111C10.3425 37.1382 10.5 36.081 10.9532 34.9969ZM34.6157 35.0134C34.8579 35.6579 34.9961 36.2037 35.2591 36.6777C35.5043 37.1188 35.8357 37.542 36.2161 37.8724C36.7198 38.3106 37.3573 38.3569 37.6411 38.0938C37.9413 37.8171 37.8625 37.1906 37.4643 36.6059C36.803 35.6339 35.7183 35.4605 34.6157 35.0134Z" fill="white"/>
<path d="M36.4989 8.27544C37.3816 8.8003 38.2033 9.21749 38.9388 9.75581C39.288 10.0115 39.2256 10.508 38.9433 10.8728C38.6639 11.2362 38.2672 11.3663 37.8541 11.1764C37.2166 10.8833 36.5881 10.5618 35.9862 10.1984C35.6014 9.96516 35.435 9.53301 35.6489 9.12927C35.8124 8.82422 36.1512 8.61338 36.4989 8.27544Z" fill="white"/>
<path d="M12.8562 0.466837C13.3778 0.643286 14.1297 0.848146 14.8385 1.15319C15.2724 1.34011 15.4076 1.77375 15.262 2.24478C15.1208 2.70086 14.6928 2.98945 14.2233 2.87581C13.5234 2.70534 12.8265 2.50646 12.1533 2.25076C11.6719 2.06833 11.5292 1.62422 11.6585 1.13674C11.7848 0.66123 12.137 0.453379 12.8562 0.466837Z" fill="white"/>
<path d="M32.7574 0.460854C33.4691 0.484779 33.8005 0.715059 33.9075 1.19506C34.013 1.66758 33.8555 2.08627 33.4038 2.25674C32.7128 2.51693 32.0025 2.74272 31.2818 2.89525C30.8227 2.99244 30.4571 2.72328 30.2981 2.25973C30.1465 1.81562 30.2639 1.373 30.6651 1.19506C31.4037 0.869078 32.1912 0.653751 32.7574 0.460854Z" fill="white"/>
<path d="M9.97317 9.63319C9.86173 9.76926 9.6953 10.0967 9.42931 10.2702C8.90328 10.6111 8.32821 10.8788 7.76058 11.1509C7.28061 11.3827 6.76053 11.2033 6.51683 10.7562C6.28056 10.3255 6.37269 9.80066 6.82145 9.53151C7.43812 9.16066 8.07857 8.81524 8.74428 8.54459C9.35056 8.29936 9.97169 8.78683 9.97317 9.63319Z" fill="white"/>
<path d="M27.5926 3.01936C27.8125 3.20926 28.1796 3.38422 28.2836 3.65936C28.3876 3.93599 28.3475 4.4145 28.1647 4.62534C27.6966 5.16964 27.1305 5.63468 26.5703 6.09076C26.2003 6.39132 25.6787 6.31207 25.3637 5.96216C25.0353 5.59879 24.9625 5.13823 25.2805 4.79431C25.805 4.22459 26.4143 3.73263 27.0042 3.22571C27.1216 3.12552 27.3118 3.11356 27.5926 3.01936Z" fill="white"/>
<path d="M18.0034 3.00141C18.2888 3.11655 18.4894 3.14795 18.6201 3.2601C19.1699 3.72814 19.7227 4.19618 20.2264 4.71207C20.5771 5.07094 20.5177 5.6287 20.1774 5.97263C19.855 6.29861 19.3319 6.3659 18.9634 6.06384C18.4195 5.61823 17.8608 5.17113 17.412 4.6358C17.2233 4.41001 17.1817 3.91805 17.2872 3.62496C17.3853 3.3558 17.7702 3.19281 18.0034 3.00141Z" fill="white"/>
<path d="M31.8903 7.73562C32.0745 7.73562 32.2633 7.71319 32.4431 7.7401C32.9201 7.81337 33.2083 8.10197 33.2559 8.58646C33.3034 9.07543 33.0791 9.45973 32.6095 9.55394C31.8888 9.69898 31.1518 9.78422 30.4162 9.83655C29.9526 9.86945 29.5633 9.47468 29.5231 9.01113C29.4786 8.50272 29.7015 8.12141 30.1948 7.9988C30.7476 7.86123 31.3197 7.79992 31.8829 7.70571C31.8858 7.71618 31.8873 7.72515 31.8903 7.73562Z" fill="white"/>
<path d="M13.7066 7.71169C14.2341 7.79842 14.7676 7.85973 15.2862 7.98085C15.8494 8.11244 16.1213 8.573 16.0069 9.10982C15.9043 9.5973 15.463 9.89337 14.9221 9.83057C14.3901 9.76926 13.8611 9.70048 13.3292 9.64216C12.6233 9.5644 12.2414 9.18758 12.2845 8.60141C12.3276 8.02422 12.766 7.70721 13.4778 7.73562C13.5521 7.73861 13.6249 7.74459 13.6992 7.74908C13.7036 7.73562 13.7051 7.72366 13.7066 7.71169Z" fill="white"/>
<path d="M38.2305 1.94422C37.7743 1.91431 37.4384 1.9173 37.1115 1.86497C36.5989 1.78272 36.2928 1.38497 36.3314 0.881041C36.3715 0.362162 36.6687 0.0376764 37.1739 0.0137511C37.7624 -0.0146601 38.3582 0.00776982 38.9437 0.0660876C39.44 0.116929 39.7476 0.55506 39.7194 1.05599C39.6926 1.52852 39.3583 1.89487 38.8798 1.93973C38.6242 1.96366 38.3642 1.94422 38.2305 1.94422Z" fill="white"/>
<path d="M7.34025 1.94272C7.20057 1.94272 6.94052 1.96366 6.68345 1.93824C6.20497 1.89188 5.87063 1.52403 5.84537 1.053C5.81862 0.550573 6.12473 0.113938 6.62253 0.0645922C7.20948 0.00627446 7.80387 -0.0161554 8.39231 0.0122558C8.89902 0.036181 9.19324 0.366648 9.23485 0.881041C9.27497 1.38048 8.96292 1.78123 8.45175 1.86347C8.12632 1.9173 7.79049 1.91431 7.34025 1.94272Z" fill="white"/>
</svg>
