<svg width="43" height="44" viewBox="0 0 43 44" fill="none" xmlns="http://www.w3.org/2000/svg">
<path d="M42.7883 24.35C42.7871 23.9295 42.7419 23.5361 42.6526 23.1812C42.1914 21.3489 40.6632 20.2073 38.6636 20.2039C35.9869 20.1982 33.2651 20.1994 30.6336 20.2005C29.5451 20.2005 28.4577 20.2016 27.3692 20.2016H27.1815V18.4564C27.1815 14.9161 27.1815 11.3747 27.1815 7.82428C27.1815 7.6276 27.1815 7.42414 27.1668 7.21954C27.0685 5.78513 25.9268 4.68304 24.5105 4.65478C23.6074 4.6367 22.6906 4.64009 21.8044 4.64235C21.4213 4.64348 21.0369 4.64461 20.6549 4.64461C20.2864 4.64461 19.919 4.64461 19.5483 4.64461H19.2939C19.2894 4.62878 19.2849 4.61296 19.2815 4.59826C18.7796 2.51955 17.4944 1.08174 15.4598 0.32441C15.1885 0.223809 14.9116 0.159379 14.6426 0.0972101C14.525 0.0700817 14.4063 0.0429533 14.2899 0.0124338L14.2481 0H12.869L12.808 0.0248677C12.782 0.0350408 12.756 0.0474747 12.73 0.0599085C12.7142 0.067821 12.6984 0.0757334 12.6904 0.0791245C11.2775 0.313107 10.0748 1.00262 9.1174 2.12845C8.51832 2.83266 8.11591 3.65668 7.89097 4.64235H6.24292C5.18492 4.64235 4.12691 4.64235 3.07003 4.64348C1.14844 4.64574 0.00113035 5.78965 0 7.70446C0 16.6998 0 25.6951 0 34.6904C0 36.5996 1.136 37.7401 3.03951 37.7401C6.78549 37.7401 10.5326 37.7401 14.2786 37.7401H18.9831C18.9831 37.8927 18.9831 38.0442 18.982 38.1945C18.9808 38.7631 18.9797 39.3 18.9842 39.8471C19.0023 42.3293 20.6775 43.9977 23.1507 43.9989C25.6929 44 28.2361 44 30.7783 44C33.3962 44 36.0141 44 38.632 43.9989C41.0792 43.9977 42.7894 42.2853 42.7917 39.8324C42.7962 33.7669 42.795 28.8477 42.7883 24.35ZM7.22859 8.65735V7.01382H8.5884C9.69953 7.01382 10.0646 6.67246 10.1517 5.55341C10.2862 3.82623 11.8009 2.39973 13.5292 2.3726C15.3196 2.34548 16.8173 3.65103 17.0152 5.41212C17.0242 5.49237 17.0321 5.57262 17.04 5.65401C17.0457 5.71279 17.0513 5.77157 17.057 5.83034C17.1361 6.59559 17.5871 7.00478 18.3614 7.01269C18.8 7.01721 19.2329 7.01608 19.6918 7.01495C19.7834 7.01495 19.8761 7.01495 19.9699 7.01382V8.65735H7.22859ZM21.3568 24.3839C21.3591 23.1846 21.9638 22.5753 23.1552 22.5731C24.9367 22.5697 26.7192 22.5708 28.5006 22.572L29.622 22.5731C29.6389 22.5731 29.6559 22.5731 29.6739 22.5742V30.8925H21.3591C21.3568 30.8495 21.3557 30.8077 21.3557 30.767V30.0345C21.3546 28.1502 21.3534 26.2671 21.3568 24.3839ZM21.3557 34.8385L21.3568 33.3623C21.3568 33.3442 21.3568 33.325 21.358 33.3069H29.666V41.6263C29.6446 41.6274 29.6231 41.6274 29.6005 41.6274C27.4449 41.6285 25.2882 41.6297 23.1326 41.6274C21.991 41.6263 21.3602 41.0034 21.3568 39.872C21.3512 38.1945 21.3534 36.4888 21.3557 34.8385ZM2.37147 34.6904C2.37034 25.6951 2.37034 16.6998 2.37147 7.70446C2.37147 7.0986 2.45625 7.01495 3.07003 7.01382C3.14124 7.01382 3.21245 7.01382 3.28367 7.01382C3.76972 7.01382 4.2569 7.01608 4.74295 7.01721H4.8232V7.58352C4.8232 8.25721 4.8232 8.92524 4.8232 9.59328C4.82433 10.6095 5.27195 11.0627 6.27344 11.0627C11.152 11.0639 16.0306 11.0639 20.9081 11.0627C21.9333 11.0627 22.3527 10.6389 22.3561 9.60119C22.3572 8.93429 22.3572 8.26625 22.3572 7.58691V7.03191C22.4804 7.03078 22.6036 7.02965 22.7257 7.02852C23.3474 7.02173 23.934 7.01495 24.5196 7.05677C24.5885 7.10764 24.714 7.29189 24.7761 7.38345C24.7908 7.40492 24.8044 7.42527 24.818 7.44561C24.8191 7.475 24.8157 7.52474 24.8134 7.55978C24.8101 7.60612 24.8078 7.65247 24.8078 7.69542C24.8089 11.2368 24.8089 14.7771 24.8089 18.3184V20.1994C24.7456 20.1994 24.6835 20.2005 24.6213 20.2027C24.3692 20.2118 24.1081 20.2129 23.856 20.2129C23.2615 20.214 22.6466 20.2163 22.0463 20.326C20.3926 20.63 19.1436 22.0644 19.008 23.8142C18.991 24.0335 18.9831 24.2697 18.9831 24.558C18.982 27.4302 18.982 30.3024 18.982 33.1758V35.3698H14.9014C10.9474 35.3698 6.99234 35.3698 3.03725 35.3698C2.46416 35.3698 2.37147 35.2748 2.37147 34.6904ZM32.1031 30.8891V22.5708H34.1332C35.6094 22.5708 37.0845 22.5697 38.5608 22.572C39.8301 22.5731 40.4213 23.1722 40.4224 24.4551C40.4224 25.928 40.4224 27.3997 40.4224 28.8725V30.8891H32.1031ZM33.8235 41.6285H32.1042V33.3092H40.4236V35.259C40.4236 36.768 40.4236 38.2782 40.4224 39.7872C40.4213 41.0091 39.7951 41.6285 38.5596 41.6285C36.9851 41.6285 35.4105 41.6285 33.8235 41.6285Z" fill="white"/>
<path d="M6.12248 20.8911C6.91711 20.8945 7.72644 20.8956 8.54481 20.8956C9.35301 20.8956 10.1703 20.8945 10.9898 20.8911C11.8036 20.8877 12.2727 20.4254 12.2772 19.6195C12.2851 18.0099 12.2851 16.3573 12.2772 14.7092C12.2738 13.8988 11.8183 13.4489 10.9943 13.4433C10.4212 13.4399 9.84811 13.4399 9.27502 13.441C9.02974 13.441 8.78445 13.4421 8.53803 13.4421L7.81913 13.441C7.25396 13.4399 6.68878 13.4387 6.12474 13.4433C5.31654 13.4489 4.83162 13.9203 4.82709 14.7047C4.81805 16.3211 4.81805 17.9737 4.82709 19.6161C4.83275 20.4119 5.31654 20.8889 6.12248 20.8911ZM7.22231 18.4937V15.8362H9.88993V18.4937H7.22231Z" fill="white"/>
<path d="M9.83899 23.8323C8.63178 23.8323 7.42457 23.8312 6.21848 23.8334C5.37863 23.8346 4.83267 24.2957 4.82815 25.0067C4.82363 25.7098 5.3775 26.1902 6.20379 26.2026C6.22413 26.2026 6.24335 26.2026 6.2637 26.2026C6.27613 26.2026 6.28856 26.2026 6.301 26.2026H7.88462C10.5929 26.2026 13.3035 26.2026 16.013 26.2015C16.1769 26.2015 16.3815 26.2015 16.5838 26.1597C17.1806 26.0376 17.5627 25.5233 17.5141 24.9073C17.4621 24.2483 16.9557 23.8368 16.1916 23.8346C15.0126 23.8312 13.8336 23.8312 12.6547 23.8323H11.2045H9.83899Z" fill="white"/>
<path d="M12.363 28.4532C10.3668 28.4464 8.27569 28.4464 6.14498 28.4532C5.38425 28.4554 4.84394 28.9347 4.83038 29.6197C4.8236 29.9373 4.93098 30.2188 5.14123 30.4347C5.38086 30.68 5.74144 30.8167 6.15854 30.819C6.57451 30.8212 6.98935 30.8224 7.40532 30.8224C7.71277 30.8224 8.0191 30.8224 8.32655 30.8212L9.24666 30.8201L10.1668 30.8212C10.8891 30.8224 11.6125 30.8224 12.3348 30.819C12.7598 30.8167 13.1125 30.6856 13.3555 30.4392C13.5646 30.2267 13.6731 29.9475 13.6697 29.631C13.6618 28.9403 13.1249 28.4566 12.363 28.4532Z" fill="white"/>
<path d="M15.3696 15.8079C16.2456 15.8136 17.1375 15.817 18.0406 15.817C18.9053 15.817 19.7791 15.8147 20.6574 15.8091C21.036 15.8068 21.3695 15.6757 21.5978 15.4383C21.8115 15.2156 21.9234 14.9093 21.9121 14.5759C21.8894 13.8931 21.3876 13.4489 20.6336 13.4444C20.0198 13.441 19.4061 13.4421 18.7923 13.4421L18.0112 13.4433C17.7478 13.4433 17.4867 13.4432 17.2234 13.4421C16.622 13.441 15.9992 13.4399 15.3877 13.4444C14.6507 13.45 14.1319 13.9282 14.1251 14.6064C14.1217 14.9229 14.2392 15.219 14.4563 15.4394C14.6869 15.6746 15.0113 15.8046 15.3696 15.8079Z" fill="white"/>
<path d="M18.7901 18.5264C17.7219 18.5197 16.6153 18.5185 15.4081 18.5264C15.0204 18.5287 14.6779 18.6621 14.4439 18.9017C14.2336 19.1165 14.1206 19.4092 14.1251 19.7246C14.1364 20.4051 14.6722 20.8855 15.4296 20.8934C15.8161 20.8979 16.2072 20.8968 16.5859 20.8957C16.9216 20.8945 17.2573 20.8945 17.5942 20.8957C17.7637 20.8957 17.9355 20.8968 18.1074 20.8968C18.3289 20.8968 18.5527 20.8957 18.7743 20.8934C19.5327 20.8832 20.0561 20.3893 20.047 19.6918C20.038 18.9989 19.5327 18.531 18.7901 18.5264Z" fill="white"/>
<path d="M16.3625 28.4792C16.3568 28.4792 16.3501 28.4792 16.3444 28.4792C15.6956 28.4792 15.1768 28.9731 15.1587 29.6095C15.1496 29.9113 15.2728 30.2154 15.4944 30.4437C15.7227 30.6799 16.037 30.8156 16.3546 30.8167C16.3557 30.8167 16.3568 30.8167 16.358 30.8167C17.0034 30.8167 17.5121 30.3047 17.5166 29.6502C17.5211 28.9912 17.0249 28.4882 16.3625 28.4792Z" fill="white"/>
<path d="M23.7585 38.6602C24.1665 38.6648 24.5791 38.6636 24.9781 38.6625C25.3263 38.6614 25.6744 38.6614 26.0226 38.6625C26.1967 38.6625 26.373 38.6636 26.5516 38.6636C26.7777 38.6636 27.0049 38.6625 27.2309 38.6591C27.9984 38.6478 28.5127 38.1685 28.5105 37.4655C28.5082 36.7669 27.9883 36.2955 27.2185 36.2921C26.0508 36.2876 24.8843 36.2876 23.7517 36.2921C23.3527 36.2944 23.0192 36.4187 22.7875 36.6527C22.5773 36.8652 22.4676 37.1501 22.4688 37.4779C22.4733 38.1764 22.991 38.6512 23.7585 38.6602Z" fill="white"/>
<path d="M37.4916 34.6904C36.5467 34.6814 35.5915 34.6814 34.6545 34.6904C33.9593 34.6972 33.4416 35.1799 33.4224 35.8389C33.4133 36.1475 33.5252 36.4402 33.7366 36.6629C33.9661 36.9059 34.2905 37.045 34.6499 37.054C34.8353 37.0585 35.0207 37.0596 35.2049 37.0596C35.344 37.0596 35.4819 37.0585 35.6175 37.0585C35.7622 37.0574 35.908 37.0563 36.0516 37.0574H37.4216C37.4487 37.0574 37.477 37.0574 37.5041 37.0563C38.2196 37.0235 38.7452 36.5001 38.7249 35.8389C38.7056 35.1912 38.1755 34.6972 37.4916 34.6904Z" fill="white"/>
<path d="M37.4935 37.8204C37.1657 37.8136 36.8345 37.8159 36.5146 37.817C36.3744 37.8181 36.2331 37.8181 36.093 37.8181C35.9517 37.8181 35.7991 37.817 35.6521 37.817C35.3243 37.8159 34.9852 37.8136 34.6495 37.8204C33.9555 37.8351 33.44 38.32 33.4242 38.9745C33.4163 39.2864 33.5316 39.5815 33.7475 39.8053C33.9792 40.046 34.3036 40.1806 34.6597 40.1851C35.1412 40.1907 35.6194 40.193 36.0884 40.193C36.5677 40.193 37.0391 40.1896 37.498 40.1839C37.8552 40.1794 38.1785 40.0438 38.4091 39.8008C38.625 39.5747 38.7369 39.2774 38.7267 38.9632C38.7029 38.3155 38.1852 37.8339 37.4935 37.8204Z" fill="white"/>
<path d="M37.7068 26.7305C37.8933 26.5655 38.0539 26.4231 38.2065 26.2603C38.6869 25.7448 38.6869 25.0531 38.2087 24.5795C37.7351 24.1104 37.0275 24.1228 36.5256 24.6077C36.3662 24.7626 36.2272 24.9287 36.0678 25.122C35.9198 24.9344 35.7898 24.7716 35.6349 24.619C35.1308 24.1228 34.4401 24.1013 33.9541 24.5659C33.4567 25.0429 33.4601 25.7494 33.9631 26.2829C34.1089 26.4378 34.2604 26.5813 34.4345 26.7475C34.2672 26.8865 34.1101 27.0199 33.962 27.1713C33.4703 27.6777 33.4545 28.3684 33.9224 28.851C34.1541 29.0907 34.4526 29.2105 34.7544 29.2105C35.0562 29.2105 35.3614 29.0918 35.61 28.8533C35.7739 28.6973 35.9152 28.5255 36.0633 28.3447C36.2261 28.53 36.3662 28.6905 36.5256 28.842C37.0207 29.3156 37.7453 29.3269 38.2087 28.8691C38.6914 28.3933 38.6891 27.7015 38.2019 27.186C38.0505 27.0255 37.8911 26.8876 37.7068 26.7305Z" fill="white"/>
<path d="M22.8554 27.6031C23.0962 27.8055 23.424 27.9095 23.8298 27.9129C23.9835 27.914 24.1373 27.914 24.2955 27.914C24.2932 28.1322 24.291 28.3379 24.3012 28.5447C24.3396 29.2523 24.8313 29.7531 25.479 29.7531C25.4959 29.7531 25.5129 29.7531 25.5298 29.7519C26.1855 29.7259 26.641 29.2309 26.6636 28.5187C26.6692 28.3175 26.6681 28.1208 26.667 27.914C26.884 27.9163 27.0886 27.9174 27.2921 27.9095C28.0211 27.8823 28.5208 27.3839 28.5095 26.6989C28.4981 26.0297 28.0098 25.5663 27.2966 25.5448C27.0897 25.5391 26.884 25.5403 26.667 25.5414C26.6681 25.3345 26.6692 25.1379 26.6636 24.94C26.6432 24.2076 26.1606 23.6944 25.4903 23.6933C25.4892 23.6933 25.4892 23.6933 25.488 23.6933C24.82 23.6933 24.3317 24.2019 24.3 24.931C24.291 25.1311 24.2932 25.3311 24.2955 25.5403C24.1203 25.5403 23.9632 25.5391 23.8061 25.5414C22.9877 25.5504 22.4756 25.9981 22.4689 26.7102C22.4643 27.0798 22.5989 27.3873 22.8554 27.6031Z" fill="white"/>
<path d="M13.5955 3.3854C13.5944 3.3854 13.5944 3.3854 13.5933 3.3854C12.9523 3.38653 12.4256 3.91101 12.42 4.55418C12.4177 4.86616 12.5466 5.17474 12.7749 5.40081C12.9987 5.62349 13.3016 5.74896 13.6091 5.74896C13.6159 5.74896 13.6226 5.74896 13.6283 5.74896C14.2624 5.73766 14.7903 5.18718 14.7801 4.5474C14.7711 3.91779 14.2285 3.3854 13.5955 3.3854Z" fill="white"/>
</svg>
