<svg width="25" height="17" viewBox="0 0 25 17" fill="none" xmlns="http://www.w3.org/2000/svg">
<path d="M24.8185 3.82072C24.818 1.74842 23.3307 0.316626 21.1781 0.316085C15.6661 0.315545 10.154 0.315004 4.64255 0.315004C4.26777 0.315004 3.89187 0.296627 3.51879 0.32095C2.57876 0.382027 1.76179 0.705249 1.13979 1.41385C0.5397 1.98949 0.221676 2.70187 0.217181 3.5002C0.196953 6.847 0.208191 10.1933 0.208191 13.5401C0.208191 13.6157 0.201448 13.693 0.21381 13.7671C0.5397 15.6945 2.18039 16.7296 3.82557 16.7182C8.11215 16.688 12.3993 16.7069 16.6859 16.7058C16.7943 16.7058 16.9022 16.7004 17.0106 16.6977C18.539 16.6993 20.0673 16.7199 21.595 16.6939C22.3755 16.6809 23.0626 16.3615 23.6431 15.8648C24.4291 15.1929 24.8174 14.3352 24.8185 13.3249C24.8219 10.1571 24.8191 6.98915 24.8185 3.82072ZM22.9261 13.2098C22.9255 14.2638 22.2783 14.8838 21.1798 14.8854C19.2379 14.8881 17.2961 14.8919 15.3537 14.8946C13.9551 14.8913 12.5561 14.887 11.1575 14.8859C8.69482 14.8843 6.23154 14.8843 3.76882 14.8848C3.04512 14.8848 2.53437 14.5708 2.21691 13.946C2.12308 13.7611 2.10285 13.5703 2.10285 13.3736C2.10116 10.1322 2.10173 6.89078 2.09948 3.64992C2.09948 3.2721 2.25793 2.95321 2.47481 2.65269C2.07363 2.41 1.75224 2.08786 1.44489 1.75221C1.75224 2.0884 2.07363 2.41054 2.47481 2.65269C2.87543 2.27271 3.35247 2.13002 3.91828 2.13056C9.6562 2.13975 15.3941 2.13542 21.132 2.13542C22.2962 2.13542 22.9272 2.73755 22.9272 3.84828C22.9272 6.96916 22.9272 10.0895 22.9261 13.2098Z" fill="white"/>
<path d="M11.7002 4.03359C9.87915 4.34547 8.64414 5.39296 8.02944 7.08853C7.91482 7.35283 7.86874 7.63173 7.82773 7.91388C7.35069 11.225 10.7079 13.9 13.9921 12.8244C16.1913 12.2217 17.6466 9.83105 17.1572 7.62525C16.6116 5.16757 14.2725 3.59362 11.7002 4.03359ZM15.2164 9.32081C14.8091 10.5072 13.9073 11.1207 12.6312 11.2504C11.9216 11.2904 11.2985 11.0726 10.7506 10.6494C10.2539 10.2662 9.92073 9.777 9.76228 9.18136C9.69373 8.92462 9.67069 8.66193 9.66676 8.39817C9.84712 6.98475 10.7062 6.05508 12.0458 5.82375C14.1101 5.46701 15.8755 7.40148 15.2164 9.32081Z" fill="white"/>
<path d="M20.114 11.2448C19.8982 11.2367 19.6814 11.2431 19.465 11.2437C19.2392 11.2437 19.0122 11.2361 18.7869 11.2453C18.2739 11.2658 17.8873 11.6593 17.8867 12.1517C17.8862 12.6414 18.2722 13.0436 18.7846 13.0603C19.2268 13.0749 19.6696 13.0728 20.1118 13.0614C20.636 13.0474 21.0394 12.6349 21.0332 12.1404C21.0265 11.6599 20.6242 11.2642 20.114 11.2448Z" fill="white"/>
<path d="M6.29156 3.96602C5.80272 3.94656 5.31164 3.96926 4.82112 3.97359C4.31767 4.07358 4.01201 4.39248 3.99572 4.83461C3.97998 5.26431 4.27553 5.68591 4.72504 5.7432C5.28692 5.81509 5.85947 5.81779 6.42585 5.73347C6.90344 5.62213 7.17708 5.25242 7.13718 4.77245C7.10347 4.35735 6.73544 3.98332 6.29156 3.96602Z" fill="white"/>
</svg>
