<svg width="25" height="25" viewBox="0 0 25 25" fill="none" xmlns="http://www.w3.org/2000/svg">
<path d="M22.1261 24.8205C15.7164 24.8205 9.30713 24.8205 2.89737 24.8205C2.86213 24.8054 2.82839 24.7832 2.79164 24.7767C1.59176 24.5526 0.788652 23.8588 0.36721 22.7203C0.296718 22.5295 0.257947 22.3266 0.205078 22.1292C0.205078 15.7211 0.205078 9.31301 0.205078 2.9049C0.217666 2.88526 0.239317 2.86714 0.241835 2.84649C0.395407 1.52278 1.60435 0.198057 3.45779 0.205106C9.49695 0.22726 15.5361 0.212659 21.5753 0.216687C21.8532 0.216687 22.1387 0.233806 22.4086 0.295737C23.8713 0.629057 24.8164 1.84553 24.8169 3.38323C24.8189 8.3639 24.8174 13.3446 24.8174 18.3258C24.8174 19.4627 24.8245 20.6001 24.8154 21.737C24.8048 23.0874 23.9816 24.2293 22.7203 24.6578C22.5264 24.7238 22.3245 24.7666 22.1261 24.8205ZM12.4858 23.2828C15.514 23.2828 18.5416 23.2833 21.5697 23.2828C22.6473 23.2828 23.2792 22.6569 23.2792 21.589C23.2797 15.5424 23.2797 9.49578 23.2792 3.44969C23.2792 2.38126 22.6468 1.75238 21.5728 1.75238C15.5326 1.75187 9.49292 1.75187 3.45275 1.75238C2.36717 1.75238 1.74332 2.37974 1.74332 3.47084C1.74281 9.50132 1.74281 15.5318 1.74332 21.5623C1.74332 22.6645 2.36566 23.2833 3.4739 23.2833C6.47787 23.2828 9.48184 23.2828 12.4858 23.2828Z" fill="white"/>
<path d="M18.6643 7.49343C17.4292 8.73104 16.2313 9.93039 15.0526 11.1111C14.682 10.741 14.328 10.3881 13.9766 10.0371C15.1613 8.85138 16.3708 7.64095 17.625 6.38622C17.4911 6.37565 17.4251 6.36658 17.3597 6.36608C16.7907 6.36507 16.2217 6.36809 15.6533 6.36457C15.1623 6.36155 14.8184 6.03981 14.82 5.5937C14.8215 5.1481 15.1654 4.82938 15.6583 4.82838C16.8844 4.82586 18.1099 4.82535 19.336 4.82838C19.8773 4.82989 20.201 5.15666 20.2015 5.69793C20.203 6.9154 20.2035 8.13288 20.2015 9.35035C20.2005 9.86192 19.8853 10.2093 19.4311 10.2083C18.977 10.2073 18.6653 9.85839 18.6643 9.34683C18.6633 8.74766 18.6643 8.14849 18.6643 7.49343Z" fill="white"/>
<path d="M6.35742 17.5395C7.59305 16.3039 8.79192 15.105 9.97166 13.9253C10.3397 14.2929 10.6937 14.6463 11.0492 15.0018C9.86239 16.187 8.65194 17.396 7.39769 18.6487C7.53112 18.6587 7.59708 18.6683 7.66304 18.6683C8.23201 18.6693 8.80048 18.6663 9.36945 18.6698C9.85988 18.6728 10.2038 18.9956 10.2013 19.4417C10.1992 19.8873 9.85535 20.205 9.3619 20.206C8.13634 20.2085 6.91028 20.209 5.68473 20.206C5.14345 20.2045 4.82069 19.8777 4.81969 19.3355C4.81818 18.118 4.81767 16.9005 4.81969 15.683C4.82069 15.172 5.1359 14.8246 5.59057 14.8256C6.04474 14.8271 6.35591 15.176 6.35692 15.6871C6.35843 16.2867 6.35742 16.8859 6.35742 17.5395Z" fill="white"/>
<path d="M17.6043 18.6686C16.353 17.4184 15.1426 16.2095 13.9482 15.0162C14.3148 14.6496 14.6647 14.3002 15.0011 13.9639C16.1763 15.138 17.3802 16.3409 18.5836 17.5433C18.6088 17.5292 18.6335 17.5156 18.6586 17.5015C18.6642 17.4365 18.6742 17.3716 18.6742 17.3066C18.6722 16.7618 18.6657 16.2176 18.6657 15.6728C18.6657 15.1778 18.9774 14.8324 19.4225 14.8259C19.8771 14.8193 20.2014 15.1672 20.2024 15.6738C20.2049 16.8993 20.2044 18.1248 20.2024 19.3504C20.2014 19.873 19.8721 20.2043 19.3464 20.2058C18.1128 20.2093 16.8787 20.2093 15.6451 20.2058C15.1582 20.2043 14.8143 19.873 14.8208 19.4264C14.8274 18.9899 15.1673 18.6732 15.6441 18.6701C16.277 18.6656 16.9094 18.6686 17.6043 18.6686Z" fill="white"/>
<path d="M6.34958 7.54349C6.34958 7.71619 6.34908 7.88889 6.34958 8.0616C6.35159 8.52633 6.36318 8.99107 6.3531 9.4553C6.34354 9.88932 5.99762 10.2141 5.57819 10.2085C5.16833 10.203 4.82695 9.88227 4.82393 9.45882C4.81487 8.16935 4.81587 6.87987 4.82292 5.58989C4.82544 5.18205 5.16128 4.83715 5.57719 4.83363C6.87475 4.82255 8.17281 4.82255 9.47087 4.83363C9.8898 4.83715 10.206 5.19514 10.2015 5.6055C10.1964 6.01586 9.8762 6.3532 9.45275 6.36076C8.79616 6.37234 8.13958 6.36378 7.49055 6.36378C8.70251 7.57521 9.91346 8.78564 11.1058 9.97743C10.701 10.3838 10.348 10.7382 9.99755 11.0902C8.81832 9.91248 7.61844 8.71363 6.41806 7.51479C6.3949 7.52436 6.37224 7.53392 6.34958 7.54349Z" fill="white"/>
</svg>
