<svg width="31" height="25" viewBox="0 0 31 25" fill="none" xmlns="http://www.w3.org/2000/svg">
<g clip-path="url(#clip0_179_165)">
<path d="M25.3827 25C24.7252 24.7344 24.005 24.5597 23.4204 24.1872C20.4278 22.2758 17.4695 20.3139 14.5037 18.3635C14.2755 18.2133 14.0727 18.0184 13.8863 17.8206C13.3495 17.249 13.2944 16.6816 13.7611 16.0623C14.0444 15.6869 14.3814 15.3448 14.7303 15.0214C17.1757 12.7563 19.6345 10.5041 22.0799 8.23902C22.4825 7.86655 22.8687 7.47099 23.2102 7.04655C23.3295 6.89785 23.3981 6.52971 23.3071 6.44454C23.161 6.30739 22.821 6.22221 22.6391 6.2944C22.2156 6.4633 21.8265 6.72461 21.4417 6.97292C17.8825 9.26402 14.3024 11.5248 10.7834 13.8722C9.11183 14.9867 7.40303 15.3419 5.46907 14.7269C4.11366 14.2966 2.74184 13.9141 1.37749 13.5055C1.20154 13.4521 1.02857 13.3814 0.863057 13.3048C0.454495 13.1157 0.0384775 12.9165 0.00418214 12.4069C-0.0301132 11.8987 0.336698 11.5955 0.734822 11.4093C2.03506 10.8001 3.34574 10.2067 4.67729 9.65959C11.7287 6.76503 18.7846 3.8777 25.8509 1.01635C26.8202 0.623668 27.8475 0.347927 28.8659 0.0880667C30.3004 -0.277181 31.1399 0.521167 30.9848 2.00815C30.782 3.9571 30.5255 5.90316 30.2094 7.83768C29.5474 11.8828 28.8406 15.9222 28.1323 19.9602C27.9489 21.0025 27.7148 22.039 27.4643 23.0684C27.3808 23.4105 27.1989 23.7382 27.0155 24.0472C26.6725 24.6232 26.1596 24.935 25.4424 24.8585C25.4185 24.9062 25.4006 24.9538 25.3827 25Z" fill="white"/>
</g>
<defs>
<clipPath id="clip0_179_165">
<rect width="31" height="25" fill="white"/>
</clipPath>
</defs>
</svg>
