<svg width="31" height="25" viewBox="0 0 31 25" fill="none" xmlns="http://www.w3.org/2000/svg">
<path d="M25.3808 24.9994C24.7232 24.7337 24.003 24.559 23.4185 24.1866C20.4258 22.2752 17.4675 20.3132 14.5017 18.3628C14.2736 18.2127 14.0708 18.0178 13.8844 17.82C13.3476 17.2483 13.2924 16.681 13.7591 16.0616C14.0424 15.6863 14.3794 15.3441 14.7283 15.0207C17.1738 12.7556 19.6326 10.5035 22.078 8.23838C22.4806 7.86591 22.8668 7.47035 23.2082 7.04591C23.3275 6.89721 23.3961 6.52908 23.3052 6.4439C23.159 6.30675 22.8191 6.22158 22.6372 6.29376C22.2137 6.46267 21.8245 6.72397 21.4398 6.97228C17.8805 9.26338 14.3004 11.5242 10.7814 13.8716C9.10988 14.9861 7.40107 15.3412 5.46712 14.7262C4.1117 14.296 2.73989 13.9134 1.37553 13.5049C1.19958 13.4515 1.02662 13.3807 0.861103 13.3042C0.452542 13.1151 0.0365244 12.9159 0.00222902 12.4063C-0.0320663 11.8981 0.334745 11.5949 0.732869 11.4087C2.03311 10.7994 3.34379 10.2061 4.67534 9.65895C11.7268 6.7644 18.7827 3.87706 25.849 1.01571C26.8182 0.623031 27.8456 0.34729 28.864 0.0874297C30.2984 -0.277818 31.1379 0.52053 30.9828 2.00751C30.7801 3.95646 30.5236 5.90252 30.2075 7.83704C29.5454 11.8822 28.8386 15.9216 28.1304 19.9595C27.947 21.0019 27.7129 22.0384 27.4624 23.0677C27.3789 23.4099 27.1969 23.7376 27.0135 24.0465C26.6706 24.6226 26.1576 24.9344 25.4404 24.8579C25.4166 24.9055 25.3987 24.9532 25.3808 24.9994Z" fill="#20262C"/>
</svg>
