<svg width="30" height="30" viewBox="0 0 30 30" fill="none" xmlns="http://www.w3.org/2000/svg">
<path d="M29.9984 14.7402C29.9637 22.1936 24.517 28.522 17.164 29.6062C14.2476 30.0355 11.4621 29.6376 8.76944 28.464C8.47481 28.3355 8.07935 28.3058 7.76424 28.3763C5.50806 28.8776 3.26133 29.4198 1.00987 29.9431C0.200039 30.1311 -0.0709557 29.8522 0.102355 29.0061C0.576594 26.6951 1.06501 24.3871 1.52665 22.0745C1.57549 21.8301 1.54398 21.5277 1.43999 21.302C-2.5808 12.5827 2.14426 2.76337 11.4967 0.427233C19.4989 -1.57204 27.8667 3.65489 29.5667 11.7319C29.7731 12.7221 29.8566 13.7374 29.9984 14.7402ZM4.03335 25.9383C5.37256 25.6218 6.59991 25.3617 7.80678 25.0327C8.41337 24.8666 8.92227 24.9198 9.48001 25.2175C11.6354 26.3692 13.953 26.7922 16.3699 26.4867C23.0534 25.6374 27.5358 19.6725 26.5101 13.0449C25.5207 6.6444 19.1933 2.21341 12.8233 3.45904C5.1126 4.96476 1.00514 13.1452 4.48395 20.1379C4.87784 20.9276 4.97867 21.6295 4.75652 22.4693C4.46347 23.5739 4.28386 24.7099 4.03335 25.9383Z" fill="#20262C"/>
<path d="M18.8149 22.1734C17.6017 22.142 16.3917 21.8224 15.2667 21.2364C12.5521 19.82 10.3432 17.8301 8.65732 15.284C7.84434 14.0572 7.33544 12.7066 7.40004 11.2072C7.46463 9.69988 8.38633 8.69555 9.54751 7.89333C10.0344 7.55803 10.6567 7.78836 10.9324 8.35868C11.383 9.28938 11.8289 10.2279 12.1771 11.1978C12.289 11.5064 12.1409 11.9483 12.0101 12.2898C11.903 12.5703 11.6383 12.7881 11.4555 13.0419C11.1435 13.4712 11.1357 13.9131 11.4523 14.3424C12.738 16.0847 14.3293 17.4854 16.2326 18.5305C16.7241 18.8 17.2456 18.742 17.5607 18.2986C18.3422 17.2018 19.3049 17.1642 20.444 17.6218C21.0222 17.8536 21.6509 17.9633 22.2401 18.1733C22.9223 18.4161 23.1555 19.0507 22.8451 19.69C22.0904 21.2411 20.6126 22.1655 18.8149 22.1734Z" fill="#20262C"/>
</svg>
