<svg width="30" height="30" viewBox="0 0 30 30" fill="none" xmlns="http://www.w3.org/2000/svg">
<g clip-path="url(#clip0_181_172)">
<path d="M30.0003 14.7407C29.9657 22.1941 24.519 28.5225 17.1659 29.6068C14.2496 30.0361 11.464 29.6381 8.77139 28.4645C8.47677 28.3361 8.0813 28.3063 7.76619 28.3768C5.51001 28.8782 3.26328 29.4203 1.01182 29.9436C0.201992 30.1316 -0.0690025 29.8528 0.104308 29.0067C0.578547 26.6956 1.06697 24.3877 1.5286 22.075C1.57744 21.8306 1.54593 21.5282 1.44195 21.3026C-2.57885 12.5832 2.14622 2.76391 11.4987 0.427775C19.5009 -1.57149 27.8686 3.65543 29.5686 11.7324C29.775 12.7227 29.8585 13.738 30.0003 14.7407ZM4.0353 25.9388C5.37451 25.6223 6.60187 25.3622 7.80873 25.0332C8.41532 24.8671 8.92422 24.9204 9.48197 25.2181C11.6373 26.3697 13.9549 26.7927 16.3718 26.4872C23.0553 25.638 27.5377 19.6731 26.5121 13.0454C25.5226 6.64494 19.1952 2.21396 12.8253 3.45958C5.11455 4.9653 1.0071 13.1457 4.48591 20.1384C4.87979 20.9281 4.98063 21.6301 4.75847 22.4699C4.46542 23.5745 4.28581 24.7104 4.0353 25.9388Z" fill="white"/>
<path d="M18.8168 22.1737C17.6037 22.1424 16.3936 21.8227 15.2687 21.2367C12.554 19.8203 10.3451 17.8305 8.65928 15.2844C7.84629 14.0576 7.33739 12.7069 7.40199 11.2075C7.46659 9.70021 8.38828 8.69588 9.54946 7.89366C10.0363 7.55836 10.6586 7.78869 10.9344 8.35901C11.385 9.2897 11.8309 10.2282 12.1791 11.1981C12.2909 11.5068 12.1428 11.9486 12.012 12.2902C11.9049 12.5706 11.6402 12.7884 11.4574 13.0422C11.1455 13.4716 11.1376 13.9134 11.4543 14.3427C12.7399 16.085 14.3312 17.4858 16.2345 18.5308C16.7261 18.8003 17.2476 18.7424 17.5627 18.2989C18.3442 17.2022 19.3068 17.1646 20.4459 17.6221C21.0242 17.854 21.6528 17.9636 22.2421 18.1736C22.9243 18.4165 23.1575 19.051 22.8471 19.6903C22.0924 21.2414 20.6145 22.1659 18.8168 22.1737Z" fill="white"/>
</g>
<defs>
<clipPath id="clip0_181_172">
<rect width="30" height="30" fill="white"/>
</clipPath>
</defs>
</svg>
